<svg width="1409" height="991" viewBox="0 0 1409 991" xmlns="http://www.w3.org/2000/svg"><g fill="none" opacity=".1"><path d="M32.529 171.95C12.449 230.851.4 293.768.4 359.363c0 348.051 314.585 630.509 702.797 630.509 388.211 0 704.135-281.12 704.135-630.51 0-109.77-32.128-214.185-87.013-303.875C1162.358 31.39 944.156 4.617 723.277.602 495.705-3.414 230.65 87.615 32.53 171.95z" fill="#FFF"/><path d="M381.92 295.107c16.063-34.805 38.82-50.87 61.577-78.981-2.677-6.693-8.031-29.45-8.031-36.144 0-34.805 28.111-61.578 61.578-61.578 8.032 0 16.064 1.338 22.757 4.016C622.878 43.439 758.083 9.972 894.626 40.76c12.048 2.678 24.096 6.694 36.144 9.371-133.866-18.741-286.473 29.45-389.55 112.447 2.677 8.032 12.048 28.112 12.048 37.483 0 34.805-22.758 42.837-56.224 42.837-8.032 0-14.725-1.339-22.757-4.016-22.758 30.79-52.208 91.029-65.595 128.512 57.563 50.869 108.432 69.61 175.365 95.044 0-2.677 2.677-6.693 2.677-9.37 0-103.077 91.029-187.413 194.106-187.413 92.367 0 170.01 66.933 184.735 155.285 46.853-29.45 91.029-52.208 124.495-95.045-8.032-9.37-16.064-37.482-16.064-50.87 0-30.788 25.435-56.223 56.224-56.223 4.016 0 8.032 0 13.387 1.339 17.402-36.144 30.789-73.626 38.82-112.448C1020.46-12.785 707.215 4.618 707.215 4.618S458.223-8.77 289.552 74.228c12.047 77.642 44.175 155.284 92.367 220.879" fill="#373535"/><path d="M1155.665 248.254c12.048 10.709 17.402 18.741 22.757 28.112 14.725 26.773-14.725 52.207-46.853 52.207-2.677 0-6.693 0-9.37-1.338-34.806 54.885-96.384 124.495-151.27 160.639 84.336 13.387 163.317 46.853 224.896 99.06 45.514-81.657 80.32-200.798 80.32-301.198 0-76.303-33.467-132.527-84.336-174.026-1.34 41.499-24.096 99.061-36.144 136.544m-680.04 519.4c28.112-77.642 96.384-136.543 161.978-188.751-9.37-13.387-24.096-45.515-29.45-60.24-78.981-24.096-148.592-69.61-203.477-128.511 0 1.338-1.338 4.016-1.338 5.354-10.71 45.515-12.048 92.368-6.694 136.544 37.483 6.693 66.933 40.16 66.933 80.32 0 24.095-21.418 57.562-37.482 73.626 16.064 34.805 28.112 53.546 49.53 81.658" fill="#373535"/><path d="M470.27 831.91c-33.466-33.467-56.223-99.061-77.642-140.56-4.016 0-8.032 1.339-12.048 1.339-45.514 0-92.367-37.483-81.658-81.658 5.355-24.096 22.757-40.16 49.53-53.547-6.693-50.869-8.031-121.818 4.017-174.026 2.677-14.725 10.709-21.418 14.725-36.143-49.53-72.288-81.658-168.672-81.658-263.716v-10.71C201.2 115.726 138.283 181.321 138.283 285.736c0 231.588 133.866 459.16 331.988 547.512v-1.338m488.611-319.94c-25.435 72.287-95.045 125.834-176.703 125.834-44.176 0-84.336-14.725-115.125-40.16-65.595 50.87-125.834 140.56-155.285 219.54 13.387 14.726 22.757 26.774 38.821 40.16 45.515 12.048 109.77 0 159.3 0 199.461 0 377.503-88.351 479.241-244.975-69.61-48.191-149.93-93.706-230.25-100.4" fill="#373535"/><path fill="#FFF" d="M960.22 490.551l172.688-41.498-174.026-9.37 141.898-107.094-160.64 57.563 108.432-151.269-151.269 100.4 52.208-176.704-103.077 145.914-2.677-184.735-68.272 164.656-56.224-165.994 2.678 195.444L624.217 142.5l53.546 186.073-159.3-115.124 124.495 156.623-198.122-72.288L600.121 412.91l-199.46 6.693 204.814 52.208-204.815 44.176 202.138 14.725-170.01 108.432 175.365-62.917L486.335 730.17 640.28 605.676 585.395 811.83l119.141-168.671-16.064 198.121 66.933-180.719 57.563 188.751 13.386-190.09L912.03 821.2l-50.87-184.735 155.285 120.48-100.4-153.946 171.35 66.933-131.19-128.512 175.365 13.387z"/></g></svg>