<svg viewBox="0 0 27.969 40.063" fill="none" stroke-linecap="square" stroke-miterlimit="10" xmlns="http://www.w3.org/2000/svg"><clipPath id="a"><path d="M0 0h27.969v40.063H0V0z"/></clipPath><g clip-path="url(#a)"><path d="M0 0h27.969v40.063H0z"/><path d="M0 0h27.969v39.622H0z"/><path fill="#fff" d="M14.017 3.189q1.985 0 3.86 1.015 1.89 1.016 2.937 2.907 1.063 1.89 1.063 3.937 0 2.031-1.047 3.906-1.031 1.875-2.906 2.922-1.86 1.031-3.907 1.031-2.03 0-3.906-1.03-1.875-1.048-2.922-2.923-1.031-1.875-1.031-3.906 0-2.047 1.047-3.937 1.062-1.891 2.953-2.907 1.89-1.015 3.86-1.015zm0 1.312q-1.656 0-3.218.844-1.563.844-2.453 2.422-.891 1.578-.891 3.281t.875 3.266q.875 1.547 2.437 2.422 1.563.875 3.25.875 1.704 0 3.266-.875 1.563-.875 2.422-2.422.86-1.563.86-3.266t-.876-3.281q-.875-1.578-2.453-2.422-1.562-.844-3.219-.844zm-3.437 10.89V6.94h2.906q1.485 0 2.14.234.673.234 1.063.828.407.578.407 1.235 0 .921-.672 1.609-.657.687-1.75.766.453.187.718.453.516.5 1.25 1.672l1.032 1.656h-1.657l-.75-1.328q-.89-1.578-1.437-1.969-.375-.297-1.094-.297h-.797v3.594h-1.36zm1.36-4.75h1.656q1.187 0 1.609-.359.437-.359.437-.937 0-.375-.203-.672-.203-.297-.578-.437-.375-.157-1.375-.157H11.94v2.563z"/></g></svg>