<?xml version="1.0" encoding="UTF-8" standalone="no"?>
<svg
   viewBox="0 0 1520.8438 372.89063"
   version="1.1"
   id="svg36"
   sodipodi:docname="AxonopsDigitalMaster_AxonopsFullLogoGradient.svg"
   width="1520.8438"
   height="372.89062"
   xmlns:inkscape="http://www.inkscape.org/namespaces/inkscape"
   xmlns:sodipodi="http://sodipodi.sourceforge.net/DTD/sodipodi-0.dtd"
   xmlns="http://www.w3.org/2000/svg"
   xmlns:svg="http://www.w3.org/2000/svg">
  <sodipodi:namedview
     id="namedview38"
     pagecolor="#ffffff"
     bordercolor="#111111"
     borderopacity="1"
     inkscape:showpageshadow="0"
     inkscape:pageopacity="0"
     inkscape:pagecheckerboard="1"
     inkscape:deskcolor="#d1d1d1"
     showgrid="false" />
  <defs
     id="defs16">
    <style
       id="style2">.Graphic-Style-6{fill:url(#linear-gradient);}.Graphic-Style-8{fill:url(#linear-gradient-2);}.cls-1{fill:#0080ff;}</style>
    <linearGradient
       id="linear-gradient"
       x1="287.10001"
       y1="264"
       x2="440.39999"
       y2="472.31"
       gradientUnits="userSpaceOnUse">
      <stop
         offset="0"
         stop-color="#361988"
         id="stop4" />
      <stop
         offset="0.53"
         stop-color="#0c66e5"
         id="stop6" />
      <stop
         offset="1"
         stop-color="#04acee"
         id="stop8" />
    </linearGradient>
    <linearGradient
       id="linear-gradient-2"
       x1="492.13"
       y1="562.02002"
       x2="413.32999"
       y2="493.87"
       gradientUnits="userSpaceOnUse">
      <stop
         offset="0.04"
         stop-color="#04acee"
         id="stop11" />
      <stop
         offset="1"
         stop-color="#51d0cc"
         id="stop13" />
    </linearGradient>
  </defs>
  <g
     id="AxonopsFullLogoGradient"
     transform="translate(-199.99625,-200.43831)"
     inkscape:export-filename="AxonopsFullLogoGradient.png"
     inkscape:export-xdpi="96"
     inkscape:export-ydpi="96">
    <path
       id="Shape"
       class="Graphic-Style-6"
       d="m 403.94,344.53 -2.55,-1.48 A 12.78,12.78 0 0 1 395,332 V 213.22 a 12.78,12.78 0 0 1 19.17,-11.07 L 519.58,263 a 12.78,12.78 0 0 1 0,22.13 l -102.86,59.4 a 12.79,12.79 0 0 1 -12.78,0 z m 28.45,56.24 102.44,59.15 A 12.78,12.78 0 0 0 554,448.85 V 327.58 A 12.78,12.78 0 0 0 534.83,316.51 L 432.39,375.66 A 12.78,12.78 0 0 0 426,386.72 v 3 a 12.78,12.78 0 0 0 6.39,11.05 z m -81.33,-54.33 2.55,-1.47 A 12.8,12.8 0 0 0 360,333.9 V 215.14 a 12.78,12.78 0 0 0 -19.17,-11.07 l -105.41,60.86 a 12.78,12.78 0 0 0 0,22.13 l 102.86,59.38 a 12.79,12.79 0 0 0 12.78,0 z M 328,389.74 v -3 a 12.78,12.78 0 0 0 -6.39,-11.06 L 219.17,316.55 A 12.78,12.78 0 0 0 200,327.62 V 448.89 A 12.78,12.78 0 0 0 219.17,460 L 321.61,400.86 A 12.78,12.78 0 0 0 328,389.74 Z m 25.61,41.13 -2.55,-1.47 a 12.75,12.75 0 0 0 -12.78,0 l -102.73,59.31 a 12.78,12.78 0 0 0 0,22.13 l 105.28,60.78 A 12.78,12.78 0 0 0 360,560.56 V 441.94 a 12.78,12.78 0 0 0 -6.39,-11.07 z"
       style="fill:url(#linear-gradient)" />
    <path
       class="Graphic-Style-8"
       d="m 419,478 v 78 a 8.41,8.41 0 0 0 12.61,7.28 l 69.27,-40 a 8.41,8.41 0 0 0 0,-14.56 l -67.59,-39 a 8.42,8.42 0 0 0 -8.41,0 l -1.68,1 A 8.41,8.41 0 0 0 419,478 Z"
       id="path19"
       style="fill:url(#linear-gradient-2)" />
    <path
       class="cls-1"
       d="m 742.91,442.89 c -12.07,16.86 -30.18,27.17 -53.37,27.17 -45.1,0 -74.65,-38.1 -74.65,-82.44 0,-44 30.5,-81.82 74.65,-81.82 22.24,0 39.71,9.68 51.46,24.67 v -20.61 l 27,3.14 v 153 h -22.24 z m 0.13,-55.75 c 0,-35.29 -23.11,-57.77 -50.28,-57.77 -26.86,0 -47.78,23.42 -47.78,57.77 0,33.41 20,58.4 47.78,58.4 26.54,0 50.24,-22.17 50.24,-58.4 z"
       id="path21" />
    <path
       class="cls-1"
       d="m 823.07,309 32.76,52.1 33.08,-52.1 h 28.7 l -46.8,72.7 52.73,83.3 h -30 L 854.9,403.85 815.9,465 H 787.19 L 839.61,383.26 793.12,309 Z"
       id="path23" />
    <path
       class="cls-1"
       d="m 927.5,387.45 c 0,-44.66 32.48,-82.13 79.32,-82.13 46.84,0 79.32,37.47 79.32,82.13 0,44.66 -32.16,82.13 -79.32,82.13 -47.16,0 -79.32,-37.47 -79.32,-82.13 z m 131.16,0 c 0,-32.79 -21.55,-58.08 -51.84,-58.08 -30,0 -51.84,25.29 -51.84,58.08 0,32.79 21.55,58.09 51.84,58.09 30.29,0 51.84,-25.3 51.84,-58.09 z"
       id="path25" />
    <path
       class="cls-1"
       d="m 1114,313 22.55,-3.12 2.82,24 c 11,-18.42 28.51,-28.1 52.63,-28.1 31.33,0 52,22.79 52,59.64 V 466 h -27 v -95.87 c 0,-24.36 -10.06,-40.29 -30.8,-40.29 -27.34,0 -46.2,22.8 -46.2,63.4 V 466 h -26 z"
       id="path27" />
    <path
       class="cls-1"
       d="m 1269.6,387.45 c 0,-44.66 32.48,-82.13 79.32,-82.13 46.84,0 79.32,37.47 79.32,82.13 0,44.66 -32.16,82.13 -79.32,82.13 -47.16,0 -79.32,-37.47 -79.32,-82.13 z m 131.16,0 c 0,-32.79 -21.55,-58.08 -51.84,-58.08 -30,0 -51.84,25.29 -51.84,58.08 0,32.79 21.55,58.09 51.84,58.09 30.29,0 51.84,-25.3 51.84,-58.09 z"
       id="path29" />
    <path
       class="cls-1"
       d="m 1456,311.65 22.24,-2.18 2.85,23.42 c 11.76,-16.87 29.86,-27.48 53.37,-27.48 44.79,0 74.65,37.78 74.65,82.13 0,44 -30.18,82.13 -74.65,82.13 -22.24,0 -40,-9.37 -51.46,-24.36 V 534 h -27 z m 123.14,75.8 c 0,-33.73 -20.3,-58.08 -47.78,-58.08 -27.17,0 -50.28,22.79 -50.28,58.39 0,35.92 23.73,57.78 50.28,57.78 27.17,0 47.78,-24.05 47.78,-58.09 z"
       id="path31" />
    <path
       class="cls-1"
       d="m 1627.51,434.61 c 13.43,6.56 26.23,10.93 39,10.93 15.62,0 26.86,-9.37 26.86,-21.55 0,-30.6 -68.08,-23.11 -68.08,-74.32 0,-29.05 24.36,-44.35 49.66,-44.35 14.67,0 27.48,3.75 41.22,10 l -8.12,21.55 c -10.62,-4.68 -20.3,-7.49 -32.17,-7.49 -15,0 -23.11,8.74 -23.11,20.3 0,29.35 68.08,24.67 68.08,74.32 0,27.48 -23.11,45.59 -53.4,45.59 -15.61,0 -30.92,-4.06 -47.16,-12.18 z"
       id="path33" />
  </g>
</svg>
