<?xml version="1.0" encoding="UTF-8" standalone="no"?>
<svg
   xmlns:dc="http://purl.org/dc/elements/1.1/"
   xmlns:cc="http://creativecommons.org/ns#"
   xmlns:rdf="http://www.w3.org/1999/02/22-rdf-syntax-ns#"
   xmlns:svg="http://www.w3.org/2000/svg"
   xmlns="http://www.w3.org/2000/svg"
   version="1.1"
   viewBox="0 0 10 10">
  <g>
    <path
       style="fill:#9e70b1;fill-opacity:1;fill-rule:nonzero;stroke:none;stroke-width:0.35277778"
       d="m 6.7302172,4.05672 c 0,0.37888 -0.1199444,0.74083 -0.3471333,1.04634 l -0.010231,0.0155 C 5.742439,6.00403 5.6627113,6.16772 5.663064,6.57941 l -0.014464,0.054 -0.041628,0.009 h -1.20015 c -0.040922,0 -0.068086,-0.012 -0.06985,-0.0702 0,-0.39723 -0.085372,-0.57292 -0.7041444,-1.44251 L 3.6165996,5.1032 C 3.3897635,4.79769 3.2694663,4.43574 3.2694663,4.05686 c 0,-0.96344 0.7764638,-1.74731 1.7303749,-1.74731 0.9542639,0 1.730375,0.78387 1.730375,1.74731 m 0.3351389,0 c 0,-1.15006 -0.9267472,-2.08562 -2.0655139,-2.08562 -1.1387666,0 -2.065161,0.93556 -2.065161,2.08562 0,0.44203 0.136525,0.86572 0.3961694,1.22484 l 0.013053,0.0219 c 0.6134805,0.86113 0.6582833,0.97155 0.6582833,1.26859 0,0.16404 0.1075972,0.40851 0.4046361,0.40851 h 1.20015 c 0.1471083,0 0.2363611,-0.0624 0.2853972,-0.115 0.1157111,-0.12418 0.1058333,-0.28999 0.1054805,-0.29351 0,-0.29951 0.044803,-0.41064 0.6611056,-1.27671 0.2659944,-0.3623 0.4064,-0.79057 0.4064,-1.2386"/>
    <path
       style="fill:#9e70b1;fill-opacity:1;fill-rule:nonzero;stroke:none;stroke-width:0.35277778"
       d="m 4.9999172,2.32881 c -0.9436805,0 -1.711325,0.77505 -1.711325,1.72791 0,0.37465 0.1188861,0.73271 0.3432528,1.03469 l 0.017992,0.0296 c 0.6205361,0.87136 0.7062611,1.0481 0.7062611,1.45097 0.00141,0.0437 0.01658,0.0511 0.0508,0.0511 H 5.607048 l 0.028928,-0.004 0.00776,-0.0392 c 0,-0.41768 0.079728,-0.58278 0.7136695,-1.47284 l 0.010583,-0.0159 C 6.5923552,4.78881 6.7112413,4.4311 6.7112413,4.05645 c 0,-0.95286 -0.7676445,-1.72791 -1.711325,-1.72791 m 0.6071305,4.33282 h -1.200149 c -0.037042,0 -0.086783,-0.009 -0.0889,-0.0893 0,-0.39264 -0.085019,-0.5662 -0.7006167,-1.43157 L 3.6015061,5.1147 C 3.3718478,4.80566 3.2504922,4.43983 3.2504922,4.05672 c 0,-0.97402 0.7849306,-1.76636 1.749425,-1.76636 0.9644944,0 1.749425,0.79234 1.749425,1.76636 0,0.38311 -0.1213556,0.74894 -0.3510139,1.05762 l -0.00917,0.0138 C 5.760861,6.01079 5.6818388,6.17342 5.6818388,6.57947 l -0.019756,0.0674 z M 4.9999172,1.9905 c -1.1285361,0 -2.0464638,0.92674 -2.0464638,2.06622 0,0.43815 0.1358194,0.8576 0.3926416,1.21355 l 0.013053,0.0219 c 0.6170083,0.86607 0.6621639,0.97755 0.6621639,1.27988 0,0.15663 0.1026583,0.38947 0.3855861,0.38947 h 1.2001499 c 0.1400528,0 0.2247195,-0.0593 0.2712861,-0.10901 C 5.9880479,6.73468 5.9788757,6.57523 5.9788757,6.57381 5.9785229,6.26725 6.0240317,6.15507 6.643509,5.28406 6.907034,4.92493 7.0463812,4.50054 7.0463812,4.05675 c 0,-1.13948 -0.9182805,-2.06622 -2.0464638,-2.06622 M 5.6070479,6.99997 H 4.4068978 c -0.31115,0 -0.4240389,-0.25612 -0.4240389,-0.42792 0,-0.29175 -0.04445,-0.40075 -0.6544028,-1.2573 L 3.3136391,5.29005 C 3.0536418,4.93021 2.915353,4.503 2.915353,4.05674 c 0,-1.16064 0.9352138,-2.10468 2.0845638,-2.10468 1.14935,0 2.0845638,0.94404 2.0845638,2.10468 0,0.45226 -0.1418166,0.88441 -0.4099277,1.24989 -0.6131278,0.86148 -0.6575778,0.97119 -0.6575778,1.26541 0,0 0.011995,0.17498 -0.1107722,0.30656 C 5.8546969,6.934 5.7608584,6.99996 5.6070473,6.99996"/>
    <path
       style="fill:#9e70b1;fill-opacity:1;fill-rule:nonzero;stroke:none;stroke-width:0.35277778"
       d="M 3.6656372,5.10955 C 4.2889955,5.9862 4.3754261,6.164 4.3754261,6.57217 c 7.055e-4,0.0317 0.0067,0.0317 0.031397,0.0317 h 1.20015 l 0.014817,-7.1e-4 0.00282,-0.0222 c 0,-0.42404 0.080433,-0.5902 0.7171972,-1.48485 l 0.011289,-0.0166 c 0.2215444,-0.29845 0.3390194,-0.65228 0.3390194,-1.0227 0,-0.94227 -0.7591778,-1.7085 -1.692275,-1.7085 -0.9330972,0 -1.6922749,0.76623 -1.6922749,1.7085 0,0.37042 0.117475,0.72425 0.339725,1.02341 z m 1.9413361,1.57127 h -1.20015 c -0.069497,0 -0.1058333,-0.0363 -0.10795,-0.1076 0,-0.3877 -0.084314,-0.56021 -0.6967361,-1.42098 l -0.00317,-0.005 -0.0127,-0.0205 C 3.3541394,4.81418 3.2317255,4.44447 3.2317255,4.05712 c 0,-0.9846 0.7930445,-1.78576 1.7681222,-1.78576 0.9750778,0 1.768475,0.80116 1.768475,1.78576 0,0.38735 -0.1227667,0.75706 -0.3545417,1.06927 l -0.00811,0.012 C 5.7794905,6.01787 5.7008211,6.17944 5.7011738,6.57984 l -0.025047,0.0808 c -0.013758,0.0138 -0.036336,0.0205 -0.069144,0.0205 M 4.9998522,2.01001 c -1.1179527,0 -2.027061,0.91828 -2.027061,2.04717 0,0.43392 0.1344083,0.84949 0.3887611,1.20227 l 0.00318,0.005 0.00988,0.0162 c 0.6205361,0.87101 0.6656917,0.98389 0.6656917,1.29152 0,0.14887 0.097367,0.37006 0.3665361,0.37006 h 1.20015 c 0.13335,0 0.2137833,-0.0561 0.2575277,-0.10301 0.1044223,-0.11183 0.09525,-0.26247 0.09525,-0.26388 0,-0.31327 0.045508,-0.42686 0.6685139,-1.30245 0.2610556,-0.35596 0.3989917,-0.77647 0.3989917,-1.21603 0,-1.12889 -0.9094611,-2.04717 -2.0274139,-2.04717 m 0.6071306,5.00945 h -1.20015 c -0.3249083,0 -0.4427361,-0.26741 -0.4427361,-0.44697 0,-0.28611 -0.04445,-0.39441 -0.6512278,-1.24601 L 3.2980592,5.30186 C 3.0352397,4.93674 2.8962453,4.50635 2.8962453,4.05691 c 0,-1.17122 0.9436805,-2.12407 2.1036138,-2.12407 1.1599333,0 2.1036139,0.95285 2.1036139,2.12407 0,0.45614 -0.1432278,0.89253 -0.4138084,1.26153 -0.6092472,0.8562 -0.6536972,0.96485 -0.6536972,1.25342 0.00106,0.0272 0.00247,0.19333 -0.1157111,0.32033 -0.054328,0.0579 -0.1527527,0.127 -0.3132666,0.127"/>
    <path
       style="fill:#9e70b1;fill-opacity:1;fill-rule:nonzero;stroke:none;stroke-width:0.35277778"
       d="m 4.3952872,6.58437 0.011642,3.5e-4 H 5.605668 v -0.003 c 0,-0.43004 0.080786,-0.59796 0.720725,-1.49684 L 6.337682,5.06798 C 6.5571098,4.7727 6.6731737,4.4231 6.6731737,4.05692 c 0,-0.93169 -0.7507111,-1.68946 -1.673225,-1.68946 -0.9225139,0 -1.673225,0.75777 -1.673225,1.68946 0,0.36653 0.1160639,0.71614 0.3354917,1.01176 l 0.019755,0.031 c 0.6258278,0.87983 0.7122584,1.05868 0.7122584,1.47249 z m 1.2117916,0.0388 H 4.4069289 c -0.034219,0 -0.049389,-0.007 -0.0508,-0.0508 0,-0.40323 -0.085725,-0.57962 -0.7059084,-1.45168 l -0.00141,-0.002 -0.016933,-0.0268 C 3.4075108,4.78992 3.2886247,4.43185 3.2886247,4.0572 c 0,-0.95286 0.7676445,-1.72791 1.711325,-1.72791 0.9436805,0 1.7109722,0.77505 1.7109722,1.72791 0,0.37465 -0.1181806,0.73236 -0.3429,1.03434 l -0.00917,0.0141 C 5.7234991,5.99782 5.6437713,6.16292 5.6437713,6.58131 l -0.00318,0.0258 -0.00247,0.0134 -0.013406,0.002 z M 4.9999483,2.29035 c -0.9648472,0 -1.749425,0.79234 -1.749425,1.76636 0,0.38311 0.1213556,0.74894 0.3510139,1.05798 l 0.014464,0.0236 0.00212,0.004 c 0.6148916,0.86396 0.6999111,1.03788 0.6999111,1.43087 0.00176,0.0603 0.029986,0.0885 0.0889,0.0885 h 1.2001499 l 0.055386,-0.0152 0.019403,-0.0663 C 5.6815184,6.1734 5.7612462,6.01042 6.390249,5.12671 l 0.00847,-0.0123 C 6.6280245,4.80572 6.7493801,4.43989 6.7493801,4.05678 c 0,-0.97402 -0.7849306,-1.76636 -1.749425,-1.76636 M 5.6070856,6.70014 H 4.4069289 c -0.079728,0 -0.1248834,-0.0452 -0.127,-0.12665 0,-0.38241 -0.084314,-0.55386 -0.6932083,-1.41005 l -0.00423,-0.007 -0.011289,-0.0187 C 3.3366044,4.82201 3.2124266,4.44806 3.2124266,4.05648 c 0,-0.99519 0.8018639,-1.80481 1.787525,-1.80481 0.9856611,0 1.787525,0.80962 1.787525,1.80481 0,0.39158 -0.1241778,0.76517 -0.3584223,1.08091 l -0.0067,0.01 C 5.7986432,6.02404 5.7196209,6.1842 5.7199737,6.57931 c 0,0 0.00106,0.0614 -0.030339,0.0938 -0.017286,0.018 -0.04445,0.0268 -0.08255,0.0268 M 4.9999542,2.02878 c -1.1073694,0 -2.0083638,0.90981 -2.0083638,2.02777 0,0.42968 0.13335,0.84137 0.3852333,1.19098 l 0.00423,0.006 0.00882,0.0152 c 0.6237111,0.87595 0.6692194,0.9899 0.6692194,1.30281 0,0.14111 0.09278,0.35102 0.3478389,0.35102 h 1.2001499 c 0.1266473,0 0.2024945,-0.0529 0.2434167,-0.097 C 5.9475126,6.72149 5.9411626,6.58144 5.9408096,6.5758 5.9404568,6.25653 5.9863176,6.14153 6.6128513,5.26099 6.8714374,4.90822 7.0079624,4.49194 7.0079624,4.05626 7.0079624,2.9383 6.1073207,2.02849 4.9999513,2.02849 M 5.6070818,6.96103 H 4.4069289 C 4.1236483,6.96103 4.02099,6.7282 4.02099,6.57156 4.02099,6.26923 3.976187,6.15775 3.3588261,5.29133 l -0.011289,-0.019 -0.00247,-0.004 C 3.0893032,4.91379 2.9534838,4.49398 2.9534838,4.05619 c 0,-1.13947 0.9179277,-2.06622 2.0464638,-2.06622 1.1281833,0 2.0461111,0.92675 2.0461111,2.06622 0,0.44379 -0.1389945,0.86818 -0.4025195,1.22731 -0.6194777,0.87101 -0.6649861,0.9839 -0.6646333,1.29117 3.528e-4,0.005 0.00741,0.16122 -0.1005417,0.27728 -0.046214,0.0497 -0.1308805,0.10901 -0.2712861,0.10901 M 4.9999476,1.95152 c -1.14935,0 -2.0845638,0.94403 -2.0845638,2.10467 0,0.4452 0.1375833,0.87171 0.3982861,1.23366 l 0.014817,0.024 c 0.6099528,0.8569 0.6544028,0.96591 0.6544028,1.25765 0,0.17181 0.1128889,0.42792 0.4240389,0.42792 h 1.2001499 c 0.1538111,0 0.24765,-0.066 0.2991556,-0.12135 0.1146528,-0.12312 0.1114778,-0.28787 0.1107722,-0.30621 0,-0.29457 0.04445,-0.40429 0.657225,-1.26542 C 6.9426952,4.94061 7.0845118,4.50846 7.0845118,4.0562 7.0845118,2.89556 6.149298,1.95153 4.999948,1.95153 M 5.6070785,7.03787 H 4.4069289 C 4.0679094,7.03787 3.94479,6.75883 3.94479,6.5715 3.94479,6.29069 3.901046,6.1838 3.2974428,5.33643 L 3.2812148,5.30993 C 3.0176898,4.9441 2.8772843,4.50948 2.8772843,4.05616 c 0,-1.18181 0.9521472,-2.14313 2.1226638,-2.14313 1.1701639,0 2.1223111,0.96132 2.1223111,2.14313 0,0.46037 -0.1442861,0.90064 -0.4173361,1.27282 -0.6057195,0.85161 -0.6498167,0.95885 -0.6498167,1.24213 0.00106,0.0321 0.00141,0.20179 -0.1210028,0.33337 -0.056797,0.061 -0.1598083,0.13335 -0.327025,0.13335"/>
    <path
       style="fill:#9e70b1;fill-opacity:1;fill-rule:nonzero;stroke:none;stroke-width:0.35277778"
       d="M 5.1880172,8.96287 H 4.7957283 L 4.5170339,8.76108 5.4949339,8.59245 Z M 4.4069672,7.5313 h 1.20015 c 0.053622,0 0.070556,0.0212 0.0762,0.0282 l 0.028575,0.10619 v 0.004 l -3.528e-4,0.005 v 0.019 L 4.2880811,7.93923 V 7.67641 c 0.00141,-0.066 0.023283,-0.14464 0.1188861,-0.14464 M 4.2880811,8.2285 5.7115394,7.98297 V 8.2666 L 4.2880811,8.51178 Z M 5.8568839,7.3642 C 5.8141979,7.3099 5.7365866,7.24531 5.6071172,7.24531 h -1.20015 c -0.2614083,0 -0.3559528,0.25682 -0.3559528,0.42969 v 3.5e-4 1.00153 l 7.056e-4,0.006 3.528e-4,0.0145 0.00247,0.0116 0.00141,0.007 0.026811,0.0575 0.00388,0.005 0.023283,0.0219 0.5916084,0.42862 0.06103,0.0205 h 0.4744861 l 0.083961,-0.042 0.5930195,-0.71578 0.00423,-0.007 0.00882,-0.0127 0.00494,-0.01 0.00635,-0.0141 0.00353,-0.0109 0.00353,-0.0152 0.00176,-0.0127 0.00141,-0.0148 3.527e-4,-0.004 V 7.67524 c 7.056e-4,-0.0388 -0.00176,-0.19508 -0.092075,-0.3115"/>
    <path
       style="fill:#9e70b1;fill-opacity:1;fill-rule:nonzero;stroke:none;stroke-width:0.35277778"
       d="m 4.4068272,7.55038 c -0.023989,0 -0.097014,0 -0.099483,0.12594 v 0.23954 l 1.3853583,-0.23883 3.527e-4,-0.007 -3.527e-4,-0.005 -0.023989,-0.0935 c -0.00423,-0.005 -0.017286,-0.0212 -0.061736,-0.0212 z M 4.2692439,7.96172 V 7.67597 c 0.00212,-0.10583 0.0508,-0.16404 0.1375833,-0.16404 h 1.20015 c 0.062442,0 0.083961,0.0268 0.091369,0.0353 0.028222,0.036 0.033161,0.0998 0.032456,0.11923 l -3.528e-4,0.043 z m 0.0381,0.28257 V 8.48877 L 5.6927022,8.24994 V 8.00546 Z m -0.0381,0.28999 V 8.21184 L 5.7304494,7.9596 V 8.28239 Z M 4.8015855,8.9435 H 5.1790577 L 5.4468161,8.62035 4.5652244,8.7724 Z M 5.1970494,8.982 H 4.7892383 L 4.4689161,8.75023 5.5424188,8.56502 Z M 4.4068272,7.26428 c -0.2472972,0 -0.3369028,0.24518 -0.3369028,0.41028 v 1.00189 l 7.056e-4,0.005 v 0.005 l 3.528e-4,0.007 0.00106,0.006 0.00247,0.0109 0.023636,0.0505 0.00282,0.004 0.019755,0.0187 0.5919611,0.42862 0.050094,0.0169 H 5.237265 l 0.069144,-0.0349 0.5969,-0.72143 0.00741,-0.0109 0.00318,-0.007 0.0067,-0.0145 0.00247,-0.008 0.00388,-0.0152 0.00106,-0.009 0.00141,-0.0155 3.527e-4,-0.71861 C 5.9308317,7.63133 5.9276517,7.48459 5.8415777,7.37453 5.8020667,7.32373 5.7290416,7.26305 5.6069805,7.26305 Z M 5.2372661,9.26841 H 4.76278 l -0.072319,-0.024 -0.5916083,-0.42863 -0.026811,-0.025 -0.00423,-0.005 -0.030339,-0.0649 -0.00247,-0.0116 -0.00176,-0.01 -7.055e-4,-0.0116 v -0.004 l -3.528e-4,-0.007 V 7.67514 c -3.528e-4,-0.18097 0.099483,-0.44909 0.37465,-0.44909 h 1.20015 c 0.1372305,0 0.2194277,0.0684 0.2645833,0.1263 0.093486,0.11994 0.097367,0.27799 0.096308,0.3235 l -3.527e-4,0.71896 -0.00141,0.0169 -0.00176,0.0141 -0.00423,0.0166 -0.00388,0.0127 -0.00706,0.0159 -0.00564,0.0113 -0.00988,0.0145 -0.00529,0.007 -0.5926666,0.71578 c -0.025753,0.031 -0.061736,0.0487 -0.098425,0.0487"/>
    <path
       style="fill:#9e70b1;fill-opacity:1;fill-rule:nonzero;stroke:none;stroke-width:0.35277778"
       d="m 4.4068272,7.56968 c -0.023283,0 -0.078317,0 -0.080433,0.10724 V 7.89318 L 5.6736522,7.6607 5.6538962,7.5838 5.6069772,7.5697 Z M 4.2501939,7.98419 V 7.67587 c 0.00247,-0.11677 0.059619,-0.1831 0.1566333,-0.1831 h 1.20015 c 0.047625,0 0.082903,0.0141 0.1058333,0.0423 0.032456,0.0406 0.037747,0.10901 0.037042,0.13158 l 3.527e-4,0.004 -7.055e-4,0.006 3.528e-4,0.049 z m 0.0762,0.27623 V 8.46574 L 5.6732994,8.23361 V 8.02794 Z m -0.0762,0.29668 V 8.19551 L 5.7498522,7.93692 v 0.3616 z M 4.8079355,8.92435 H 5.1702383 L 5.3991911,8.64812 4.6132022,8.78359 Z m 0.3979333,0.0769 H 4.7832411 L 4.4209383,8.73879 5.5903966,8.537 Z m -1.1165416,-0.32491 3.528e-4,0.005 3.528e-4,0.006 v 0.005 l 0.00282,0.0148 0.020108,0.0427 0.00282,0.004 0.015875,0.0155 0.5919611,0.42863 0.039158,0.0134 H 5.237261 l 0.054328,-0.0282 0.5961945,-0.72073 0.00635,-0.009 0.00282,-0.005 0.00564,-0.0131 0.00212,-0.007 0.00353,-0.0134 0.00106,-0.008 0.00106,-0.0131 3.527e-4,-0.006 V 7.67558 C 5.9114218,7.64558 5.9103635,7.49531 5.8267552,7.38807 5.7893612,7.34047 5.7212747,7.28364 5.6069747,7.28364 h -1.20015 c -0.2331861,0 -0.3178528,0.2339 -0.3178528,0.39123 V 8.67676 Z M 5.2372661,9.28771 H 4.76278 L 4.679172,9.25981 4.0875637,8.83118 l -0.029986,-0.0282 -0.00459,-0.006 -0.034219,-0.0723 -0.00141,-0.007 -7.055e-4,-0.004 -0.00247,-0.012 -7.055e-4,-0.0138 -7.056e-4,-0.0109 V 7.67545 c 0,-0.18874 0.1051278,-0.46849 0.3940528,-0.46849 h 1.20015 c 0.1449916,0 0.2321277,0.0727 0.2794,0.1337 0.097719,0.12489 0.1016,0.28893 0.1005416,0.3362 l -3.527e-4,0.72108 -0.00141,0.0162 -0.00212,0.0155 -0.00459,0.0187 -0.00423,0.0138 -0.00811,0.018 -0.00635,0.012 -0.010583,0.0166 -0.006,0.008 -0.5930194,0.71579 c -0.029281,0.0353 -0.070556,0.0557 -0.1128889,0.0557"/>
    <path
       style="fill:#9e70b1;fill-opacity:1;fill-rule:nonzero;stroke:none;stroke-width:0.35277778"
       d="m 4.4068272,7.5888 c -0.022225,0 -0.059619,0 -0.061383,0.0885 v 0.19297 l 1.3080999,-0.22543 -0.014464,-0.049 -0.032103,-0.007 z M 4.3073442,7.91582 V 7.67699 c 0.00247,-0.12664 0.075494,-0.12664 0.099483,-0.12664 h 1.20015 l 0.061383,0.0212 0.024694,0.0889 v 0.0166 z M 5.7308022,7.66923 Z M 4.4068272,7.51189 c -0.086783,0 -0.1354667,0.0586 -0.1375833,0.1644 v 0.2854 L 5.7304494,7.70945 v -0.0328 l 3.528e-4,-0.005 h -3.528e-4 l 3.528e-4,-0.006 c 7.055e-4,-0.0197 -0.00423,-0.0833 -0.032808,-0.11924 -0.01905,-0.0233 -0.049389,-0.0353 -0.091017,-0.0353 z M 4.2307911,8.00719 V 7.67594 c 0.00282,-0.127 0.068439,-0.2025 0.1760361,-0.2025 h 1.20015 c 0.053269,0 0.093839,0.0166 0.12065,0.0494 0.034219,0.043 0.04198,0.11148 0.041275,0.14288 v 0.006 l -3.528e-4,0.007 v 0.0639 z M 4.3454439,8.27672 V 8.44287 L 5.6546022,8.21745 V 8.05094 Z m -0.0381,0.21202 V 8.24426 L 5.6927022,8.00543 v 0.24448 z m -0.0381,-0.27693 V 8.53424 L 5.7304494,8.28236 V 7.95957 Z M 4.2307909,8.57975 V 8.17935 L 5.7685492,7.91406 V 8.31482 Z M 4.8139325,8.90501 H 5.1614187 L 5.3512131,8.67606 4.6615325,8.79495 Z m 0.365125,0.0385 H 4.8015855 L 4.5652244,8.77241 5.4468161,8.62036 Z M 4.7892381,8.98201 H 5.1970492 L 5.5424186,8.56503 4.4689159,8.74988 Z m 0.42545,0.0388 H 4.7772439 L 4.3726078,8.72766 5.6383744,8.50929 Z m -1.1066639,-0.34642 7.056e-4,0.006 v 0.006 l 0.00282,0.0166 0.016228,0.0349 0.00247,0.003 0.012347,0.012 0.5923138,0.42897 0.027869,0.01 h 0.4744861 l 0.039864,-0.0212 0.5961944,-0.72072 0.00423,-0.007 0.00212,-0.004 0.00494,-0.0109 0.00141,-0.004 0.00353,-0.0134 7.055e-4,-0.005 0.00106,-0.0131 3.527e-4,-0.007 V 7.67505 c 7.056e-4,-0.0286 -3.527e-4,-0.17357 -0.08008,-0.27552 -0.034572,-0.0444 -0.098072,-0.097 -0.2046111,-0.097 h -1.20015 c -0.219075,0 -0.2988028,0.22225 -0.2988028,0.37182 z M 5.2372659,9.23001 H 4.76278 L 4.712686,9.21311 4.1207249,8.78448 l -0.019755,-0.0187 -0.00282,-0.004 -0.023636,-0.0508 -0.00317,-0.0152 v -7.1e-4 h -0.00141 V 7.67413 c 0,-0.16509 0.089606,-0.41028 0.3369028,-0.41028 h 1.20015 c 0.1220611,0 0.1950861,0.0607 0.2345972,0.11148 0.087842,0.11254 0.0889,0.26952 0.088194,0.29986 V 8.3871 l -3.527e-4,0.008 -0.00106,0.0124 -0.00141,0.0109 -0.00353,0.0138 -0.00282,0.009 -0.00529,0.012 -0.01905,-0.005 0.017286,0.008 -0.00282,0.005 -0.00706,0.0102 -0.5972528,0.72214 z M 4.4068272,7.22579 c -0.1541639,0 -0.2423583,0.084 -0.2896305,0.15487 -0.053269,0.0801 -0.085372,0.19015 -0.08502,0.29422 v 1.00153 0.007 l 0.00106,0.0155 0.00176,0.01 0.00247,0.0113 0.030339,0.0653 0.00459,0.006 0.026105,0.0247 0.5919611,0.42863 0.072319,0.024 h 0.4744861 c 0.036689,0 0.072672,-0.0176 0.098425,-0.0487 l 0.5926666,-0.71578 0.00423,-0.006 0.010936,-0.0159 0.00564,-0.0109 0.00706,-0.0162 0.00388,-0.0123 0.00423,-0.0169 0.00176,-0.0131 0.00141,-0.0155 3.527e-4,-0.72072 C 5.9689172,7.63064 5.9650372,7.47258 5.8715492,7.35264 5.8267462,7.29474 5.7441964,7.22634 5.6069659,7.22634 Z M 5.2372661,9.30683 H 4.76278 c -0.033514,0 -0.066322,-0.0106 -0.094544,-0.031 l -0.5916083,-0.42862 -0.033514,-0.0314 -0.00494,-0.006 -0.037747,-0.0801 -0.00176,-0.008 -0.00106,-0.004 -0.00247,-0.0134 -3.527e-4,-0.0159 -0.00106,-0.0113 V 7.67558 c 0,-0.11148 0.034219,-0.22931 0.091722,-0.31574 C 4.160588,7.24731 4.2717126,7.18769 4.4068265,7.18769 h 1.20015 c 0.1524,0 0.244475,0.0769 0.2945694,0.14111 0.1012472,0.13017 0.1054806,0.29951 0.1044222,0.34854 l -3.527e-4,0.72073 -0.00141,0.0183 -0.00247,0.0169 -0.00494,0.0201 -0.00494,0.0155 -0.00882,0.0198 -0.0067,0.0134 -0.011994,0.018 -0.0067,0.009 -0.5926667,0.71579 c -0.033161,0.0399 -0.079728,0.0624 -0.1277055,0.0624"/>
    <path
       style="fill:#9e70b1;fill-opacity:1;fill-rule:nonzero;stroke:none;stroke-width:0.35277778"
       d="m 2.5132572,4.05672 c 0,-0.066 -0.052917,-0.11959 -0.1185333,-0.11959 H 1.6828183 c -0.065617,0 -0.1185333,0.0536 -0.1185333,0.11959 0,0.0663 0.052917,0.11994 0.1185333,0.11994 h 0.7119056 c 0.065617,0 0.1185333,-0.0536 0.1185333,-0.11994"/>
    <path
       style="fill:#9e70b1;fill-opacity:1;fill-rule:nonzero;stroke:none;stroke-width:0.35277778"
       d="m 1.6829872,3.9947 c -0.033867,0 -0.061383,0.0279 -0.061383,0.0621 0,0.0342 0.027517,0.0621 0.061383,0.0621 h 0.7119055 c 0.033514,0 0.061031,-0.0279 0.061031,-0.0621 0,-0.0342 -0.027517,-0.0621 -0.061031,-0.0621 z M 2.3948927,4.23459 H 1.6829872 c -0.097014,0 -0.1756833,-0.0797 -0.1756833,-0.1778 0,-0.0977 0.078669,-0.17745 0.1756833,-0.17745 h 0.7119055 c 0.096661,0 0.1756834,0.0797 0.1756834,0.17745 0,0.0981 -0.079022,0.1778 -0.1756834,0.1778"/>
    <path
       style="fill:#9e70b1;fill-opacity:1;fill-rule:nonzero;stroke:none;stroke-width:0.35277778"
       d="m 1.6829872,3.97558 c -0.04445,0 -0.080786,0.0363 -0.080786,0.0811 0,0.0451 0.036336,0.0815 0.080786,0.0815 h 0.7119055 c 0.044097,0 0.080433,-0.0363 0.080433,-0.0815 0,-0.0448 -0.036336,-0.0811 -0.080433,-0.0811 z M 2.3948927,4.21512 H 1.6829872 c -0.086431,0 -0.1566333,-0.0709 -0.1566333,-0.1584 0,-0.0871 0.070203,-0.15805 0.1566333,-0.15805 h 0.7119055 c 0.086078,0 0.1562806,0.0709 0.1562806,0.15805 0,0.0875 -0.070203,0.1584 -0.1562806,0.1584"/>
    <path
       style="fill:#9e70b1;fill-opacity:1;fill-rule:nonzero;stroke:none;stroke-width:0.35277778"
       d="m 1.6829872,4.03347 -0.023283,0.0233 0.023283,0.0236 h 0.7119055 l 0.022931,-0.0236 -0.022931,-0.0233 z M 2.3948927,4.27301 H 1.6829872 c -0.1178278,0 -0.2137833,-0.097 -0.2137833,-0.21626 0,-0.11888 0.095956,-0.2159 0.2137833,-0.2159 h 0.7119055 c 0.1178278,0 0.2137834,0.097 0.2137834,0.2159 0,0.11924 -0.095956,0.21626 -0.2137834,0.21626"/>
    <path
       style="fill:#9e70b1;fill-opacity:1;fill-rule:nonzero;stroke:none;stroke-width:0.35277778"
       d="m 8.3168372,3.93716 h -0.711906 c -0.065263,0 -0.1185329,0.0536 -0.1185329,0.11959 0,0.0663 0.05327,0.11995 0.1185329,0.11995 h 0.711906 c 0.06562,0 0.118533,-0.0536 0.118533,-0.11995 0,-0.066 -0.05292,-0.11959 -0.118533,-0.11959"/>
    <path
       style="fill:#9e70b1;fill-opacity:1;fill-rule:nonzero;stroke:none;stroke-width:0.35277778"
       d="m 7.6051072,3.9947 c -0.03387,0 -0.061383,0.0279 -0.061383,0.0621 0,0.0342 0.027516,0.0621 0.061383,0.0621 h 0.711906 c 0.03387,0 0.06138,-0.0279 0.06138,-0.0621 0,-0.0342 -0.02752,-0.0621 -0.06138,-0.0621 z m 0.711906,0.23989 h -0.711906 c -0.096661,0 -0.1756833,-0.0797 -0.1756833,-0.1778 0,-0.0977 0.079022,-0.17745 0.1756833,-0.17745 h 0.711906 c 0.09666,0 0.175683,0.0797 0.175683,0.17745 0,0.0981 -0.07902,0.1778 -0.175683,0.1778"/>
    <path
       style="fill:#9e70b1;fill-opacity:1;fill-rule:nonzero;stroke:none;stroke-width:0.35277778"
       d="m 7.6051072,3.97558 c -0.044097,0 -0.080433,0.0363 -0.080433,0.0811 0,0.0451 0.036336,0.0815 0.080433,0.0815 h 0.711906 c 0.04445,0 0.08043,-0.0363 0.08043,-0.0815 0,-0.0448 -0.03598,-0.0811 -0.08043,-0.0811 z m 0.711906,0.23954 h -0.711906 c -0.086431,0 -0.1566333,-0.0709 -0.1566333,-0.1584 0,-0.0871 0.070203,-0.15805 0.1566333,-0.15805 h 0.711906 c 0.08643,0 0.156633,0.0709 0.156633,0.15805 0,0.0875 -0.0702,0.1584 -0.156633,0.1584"/>
    <path
       style="fill:#9e70b1;fill-opacity:1;fill-rule:nonzero;stroke:none;stroke-width:0.35277778"
       d="m 7.6051072,4.03347 -0.02328,0.0233 0.02328,0.0236 h 0.711906 l 0.02328,-0.0236 -0.02328,-0.0233 z m 0.711906,0.23954 h -0.711906 c -0.1178278,0 -0.2137833,-0.097 -0.2137833,-0.21626 0,-0.11888 0.095956,-0.2159 0.2137833,-0.2159 h 0.711906 c 0.117827,0 0.213783,0.097 0.213783,0.2159 0,0.11924 -0.09596,0.21626 -0.213783,0.21626"/>
    <path
       style="fill:#9e70b1;fill-opacity:1;fill-rule:nonzero;stroke:none;stroke-width:0.35277778"
       d="m 5.0000872,1.50768 c 0.065617,0 0.1185333,-0.054 0.1185333,-0.11994 V 0.90866 c 0,-0.0663 -0.052917,-0.11994 -0.1185333,-0.11994 -0.065617,0 -0.1185333,0.0536 -0.1185333,0.11994 v 0.47908 c 0,0.066 0.052917,0.11994 0.1185333,0.11994"/>
    <path
       style="fill:#9e70b1;fill-opacity:1;fill-rule:nonzero;stroke:none;stroke-width:0.35277778"
       d="m 5.0000872,0.84658 c -0.033867,0 -0.061383,0.0279 -0.061383,0.0621 v 0.47907 c 0,0.0342 0.027517,0.0621 0.061383,0.0621 0.033867,0 0.061383,-0.0279 0.061383,-0.0621 V 0.90868 c 0,-0.0342 -0.027517,-0.0621 -0.061383,-0.0621 m 0,0.71861 c -0.096661,0 -0.1756833,-0.0797 -0.1756833,-0.17745 V 0.90867 c 0,-0.0981 0.079022,-0.17745 0.1756833,-0.17745 0.097014,0 0.1760361,0.0794 0.1760361,0.17745 v 0.47907 c 0,0.0977 -0.079022,0.17745 -0.1760361,0.17745"/>
    <path
       style="fill:#9e70b1;fill-opacity:1;fill-rule:nonzero;stroke:none;stroke-width:0.35277778"
       d="m 5.0000872,0.82746 c -0.044097,0 -0.080433,0.0363 -0.080433,0.0811 v 0.47907 c 0,0.0448 0.036336,0.0811 0.080433,0.0811 0.04445,0 0.080786,-0.0363 0.080786,-0.0811 V 0.90856 c 0,-0.0448 -0.036336,-0.0811 -0.080786,-0.0811 m 0,0.71861 c -0.086431,0 -0.1566333,-0.0713 -0.1566333,-0.1584 V 0.9086 c 0,-0.0871 0.070203,-0.1584 0.1566333,-0.1584 0.086431,0 0.1566333,0.0713 0.1566333,0.1584 v 0.47907 c 0,0.0871 -0.070203,0.1584 -0.1566333,0.1584"/>
    <path
       style="fill:#9e70b1;fill-opacity:1;fill-rule:nonzero;stroke:none;stroke-width:0.35277778"
       d="m 5.0000872,0.885 -0.023283,0.0236 v 0.47907 l 0.023283,0.0236 0.023283,-0.0236 V 0.9086 Z m 0,0.71861 c -0.1178278,0 -0.2137833,-0.0967 -0.2137833,-0.2159 V 0.90864 c 0,-0.11924 0.095955,-0.2159 0.2137833,-0.2159 0.1178278,0 0.2137833,0.0967 0.2137833,0.2159 v 0.47907 c 0,0.11924 -0.095955,0.2159 -0.2137833,0.2159"/>
    <path
       style="fill:#9e70b1;fill-opacity:1;fill-rule:nonzero;stroke:none;stroke-width:0.35277778"
       d="m 3.6516672,1.78483 c 0.021872,0.0385 0.061736,0.0596 0.1030111,0.0596 l 0.058914,-0.01586 c 0.056797,-0.0332 0.0762,-0.10653 0.043744,-0.16368 L 3.6791835,1.35374 c -0.032808,-0.0571 -0.1054806,-0.0769 -0.161925,-0.0437 -0.056797,0.0332 -0.0762,0.10619 -0.043392,0.16369 z"/>
    <path
       style="fill:#9e70b1;fill-opacity:1;fill-rule:nonzero;stroke:none;stroke-width:0.35277778"
       d="m 3.7011272,1.7559 0.083961,0.0226 0.022578,-0.0847 -0.1778,-0.31115 -0.083961,-0.0229 -0.022578,0.085 z m 0.053269,0.1464 c -0.062442,0 -0.12065,-0.0339 -0.1520472,-0.0885 L 3.4241963,1.50265 c -0.048331,-0.085 -0.019403,-0.19368 0.064205,-0.24272 0.083961,-0.0487 0.1915583,-0.0197 0.2402417,0.0649 l 0.1781527,0.31115 c 0.048331,0.0847 0.019756,0.19367 -0.064558,0.24271 z"/>
    <path
       style="fill:#9e70b1;fill-opacity:1;fill-rule:nonzero;stroke:none;stroke-width:0.35277778"
       d="m 3.6847572,1.76553 c 0.021519,0.0374 0.073025,0.0515 0.1100667,0.03 l 0.037394,-0.0498 -0.00776,-0.0614 -0.1781528,-0.31115 c -0.022225,-0.0388 -0.071614,-0.0522 -0.1100666,-0.03 -0.038453,0.0226 -0.051506,0.0723 -0.029281,0.11112 z m 0.06985,0.11747 c -0.055739,0 -0.10795,-0.03 -0.1358194,-0.079 v 0 l -0.1778,-0.31115 C 3.3975958,1.41735 3.4233488,1.32034 3.4981378,1.2766 3.5729268,1.2332 3.6688822,1.259 3.7122739,1.3345 L 3.8904266,1.646 c 0.020814,0.0363 0.026458,0.079 0.015169,0.11994 -0.010583,0.0409 -0.036689,0.0748 -0.073025,0.096 z"/>
    <path
       style="fill:#9e70b1;fill-opacity:1;fill-rule:nonzero;stroke:none;stroke-width:0.35277778"
       d="m 3.7341772,1.7366 0.03175,0.009 0.011289,-0.0145 -0.00247,-0.0176 -0.1781527,-0.31115 -0.031397,-0.009 -0.00882,0.0324 z m 0.020461,0.20426 c -0.0762,0 -0.1471083,-0.0413 -0.1855611,-0.10795 l -0.1778,-0.31115 c -0.058914,-0.10301 -0.023989,-0.2353 0.078317,-0.29492 0.1019527,-0.0596 0.2328333,-0.0243 0.2921,0.0787 l 0.1781527,0.3115 c 0.028575,0.0497 0.035983,0.10795 0.021167,0.16369 -0.014817,0.0557 -0.050094,0.1023 -0.099483,0.13123 -0.032456,0.019 -0.069497,0.0289 -0.1068917,0.0289"/>
    <path
       style="fill:#9e70b1;fill-opacity:1;fill-rule:nonzero;stroke:none;stroke-width:0.35277778"
       d="m 6.1860572,1.82861 0.059267,0.0159 c 0.040922,0 0.080786,-0.0215 0.1026583,-0.06 L 6.5261353,1.47336 C 6.5589433,1.41616 6.5391883,1.34284 6.4827433,1.30967 6.4259463,1.27647 6.3532739,1.29627 6.3204655,1.35337 l -0.1778,0.3115 c -0.032808,0.0571 -0.013405,0.13053 0.043392,0.16369"/>
    <path
       style="fill:#9e70b1;fill-opacity:1;fill-rule:nonzero;stroke:none;stroke-width:0.35277778"
       d="m 6.2146672,1.77865 0.083961,-0.0229 0.1778,-0.31115 0.00635,-0.0469 -0.028575,-0.0378 -0.084314,0.0226 -0.1778,0.3115 -0.006,0.0469 z m 0.030692,0.12382 -0.087842,-0.024 c -0.040569,-0.0236 -0.06985,-0.0617 -0.082197,-0.1076 -0.011995,-0.0459 -0.00564,-0.0938 0.017639,-0.13476 L 6.2711119,1.32496 c 0.048331,-0.085 0.1562806,-0.11395 0.2398889,-0.0649 0.040922,0.0236 0.06985,0.0617 0.082197,0.10759 0.011995,0.0459 0.00564,0.0935 -0.017639,0.13477 l -0.1778,0.31114 c -0.031397,0.0547 -0.089958,0.0889 -0.1524,0.0889"/>
    <path
       style="fill:#9e70b1;fill-opacity:1;fill-rule:nonzero;stroke:none;stroke-width:0.35277778"
       d="m 6.4234472,1.33232 -0.06985,0.0406 -0.1778,0.31115 -0.00811,0.0617 0.037394,0.0494 c 0.037042,0.0219 0.088547,0.008 0.1100666,-0.03 l 0.1778,-0.3108 0.00811,-0.0617 -0.037394,-0.0494 z M 6.2452944,1.88301 6.1669774,1.86181 c -0.036336,-0.0212 -0.062089,-0.0554 -0.073025,-0.096 -0.010936,-0.0409 -0.00529,-0.0836 0.015522,-0.12029 L 6.2876272,1.33437 c 0.043039,-0.0755 0.1393472,-0.1016 0.2141361,-0.0579 0.036336,0.0212 0.062089,0.055 0.073025,0.096 0.010583,0.0409 0.00529,0.0836 -0.015875,0.12029 l -0.1778,0.31115 c -0.027869,0.0487 -0.080081,0.079 -0.1358195,0.079"/>
    <path
       style="fill:#9e70b1;fill-opacity:1;fill-rule:nonzero;stroke:none;stroke-width:0.35277778"
       d="m 6.4234472,1.38968 -0.020461,0.012 -0.1778,0.31115 -0.00247,0.018 0.010936,0.0141 0.032103,-0.009 0.1778,-0.3108 0.00212,-0.018 -0.010583,-0.0145 z M 6.2452944,1.94072 c -0.037394,0 -0.074436,-0.0102 -0.1068916,-0.0289 -0.049389,-0.0289 -0.084667,-0.0755 -0.099483,-0.13123 -0.014817,-0.0557 -0.00741,-0.11395 0.02152,-0.16404 l 0.1778,-0.31115 c 0.028575,-0.0498 0.074789,-0.0857 0.1298222,-0.10019 0.055386,-0.0152 0.1128889,-0.007 0.1622778,0.0212 0.049389,0.0289 0.084667,0.0755 0.099483,0.13124 0.014817,0.0557 0.00741,0.11394 -0.021519,0.16404 L 6.4308565,1.83284 C 6.3924035,1.89954 6.3211426,1.94079 6.2452954,1.94079"/>
    <path
       style="fill:#9e70b1;fill-opacity:1;fill-rule:nonzero;stroke:none;stroke-width:0.35277778"
       d="m 2.1935272,2.56514 0.5136444,0.29951 0.059267,0.0159 c 0.040922,0 0.080786,-0.0215 0.1030111,-0.06 0.032456,-0.0571 0.013053,-0.13053 -0.043744,-0.16369 L 2.3120612,2.35771 c -0.056797,-0.0332 -0.1291166,-0.0138 -0.161925,0.0437 -0.032808,0.0571 -0.013406,0.13053 0.043392,0.16369"/>
    <path
       style="fill:#9e70b1;fill-opacity:1;fill-rule:nonzero;stroke:none;stroke-width:0.35277778"
       d="m 2.2221372,2.51518 0.5136444,0.29951 0.083961,-0.0229 -0.022578,-0.0847 -0.5136445,-0.29951 -0.083961,0.0229 -0.006,0.0469 z M 2.7664733,2.93851 2.6786313,2.91451 2.1649869,2.61536 c -0.040569,-0.024 -0.06985,-0.0621 -0.082197,-0.10795 -0.011995,-0.0459 -0.00564,-0.0938 0.017639,-0.13476 0.048683,-0.0847 0.1562805,-0.11395 0.2402416,-0.0649 l 0.5136445,0.2995 c 0.083961,0.0487 0.1128889,0.1577 0.064558,0.24236 -0.031397,0.0547 -0.089958,0.0889 -0.1524,0.0889"/>
    <path
       style="fill:#9e70b1;fill-opacity:1;fill-rule:nonzero;stroke:none;stroke-width:0.35277778"
       d="m 2.2126472,2.53173 0.5136444,0.29951 c 0.037042,0.0215 0.088547,0.007 0.1100667,-0.0296 0.022225,-0.0388 0.00882,-0.0889 -0.029633,-0.11112 L 2.2930808,2.39101 c -0.0381,-0.0222 -0.087842,-0.009 -0.1100666,0.0296 -0.022225,0.0388 -0.00882,0.0889 0.029633,0.11112 M 2.7665083,2.91908 2.6881913,2.89788 2.1745469,2.59837 C 2.0997579,2.55467 2.0736525,2.45762 2.1170439,2.38212 2.1604359,2.30662 2.2563911,2.28052 2.33118,2.32432 l 0.5136445,0.2995 c 0.074789,0.0438 0.1005416,0.14041 0.057503,0.21626 -0.028222,0.0487 -0.080081,0.079 -0.1358194,0.079"/>
    <path
       style="fill:#9e70b1;fill-opacity:1;fill-rule:nonzero;stroke:none;stroke-width:0.35277778"
       d="m 2.2412572,2.48195 0.5136444,0.29916 0.032103,-0.009 0.00212,-0.0176 -0.010936,-0.0141 -0.5136445,-0.29951 -0.03175,0.008 z M 2.7665433,2.9769 c -0.037747,0 -0.074789,-0.0102 -0.1068917,-0.0289 L 2.1456544,2.64849 c -0.049389,-0.0289 -0.084667,-0.0755 -0.099483,-0.13123 -0.014817,-0.0557 -0.00706,-0.11395 0.021519,-0.16404 0.058914,-0.10301 0.1897945,-0.13829 0.2921,-0.079 l 0.5136445,0.29951 c 0.049389,0.0289 0.084667,0.0755 0.099483,0.13124 0.014817,0.0557 0.00741,0.11394 -0.021167,0.16368 -0.0381,0.0667 -0.1093611,0.10831 -0.1852083,0.10831"/>
    <path
       style="fill:#9e70b1;fill-opacity:1;fill-rule:nonzero;stroke:none;stroke-width:0.35277778"
       d="M 7.8445372,5.51019 7.33054,5.21068 C 7.274096,5.17748 7.2014233,5.19728 7.168615,5.25478 7.135807,5.31188 7.155209,5.38531 7.212359,5.41812 l 0.5136452,0.2995 0.05927,0.0162 c 0.04092,0 0.08079,-0.0215 0.102659,-0.06 0.03281,-0.0575 0.0134,-0.13053 -0.04339,-0.16369"/>
    <path
       style="fill:#9e70b1;fill-opacity:1;fill-rule:nonzero;stroke:none;stroke-width:0.35277778"
       d="m 7.2715872,5.25232 -0.015875,0.002 -0.037394,0.0289 -0.00635,0.0473 0.028575,0.0377 0.513997,0.29916 0.08396,-0.0226 -0.02258,-0.0847 -0.5139967,-0.2995 z m 0.513644,0.53904 -0.08784,-0.0236 -0.5139974,-0.29951 c -0.04057,-0.0236 -0.069497,-0.0621 -0.081845,-0.1076 -0.012347,-0.0459 -0.006,-0.0938 0.017639,-0.13476 0.023636,-0.0413 0.061383,-0.0706 0.1068917,-0.0829 0.045155,-0.0123 0.092428,-0.006 0.13335,0.0176 L 7.8730742,5.4601 c 0.08396,0.049 0.112889,0.15769 0.06456,0.24271 -0.03175,0.0547 -0.08996,0.0885 -0.1524,0.0885"/>
    <path
       style="fill:#9e70b1;fill-opacity:1;fill-rule:nonzero;stroke:none;stroke-width:0.35277778"
       d="m 7.2715872,5.23337 -0.06985,0.0406 -0.00811,0.0617 0.037394,0.0494 0.513997,0.29951 c 0.03704,0.0215 0.08855,0.008 0.110066,-0.03 0.02223,-0.0388 0.0088,-0.0885 -0.02963,-0.11078 L 7.3118103,5.2443 Z M 7.7852312,5.77241 7.7065612,5.75121 7.1929168,5.4517 C 7.1569338,5.4305 7.1308278,5.3963 7.1198918,5.3554 7.1093088,5.3145 7.1146018,5.2721 7.1357668,5.23546 7.1788058,5.15996 7.2747612,5.13386 7.3499029,5.17756 l 0.5136443,0.29951 c 0.07479,0.043 0.100542,0.1404 0.0575,0.2159 -0.02822,0.049 -0.08043,0.0794 -0.13582,0.0794"/>
    <path
       style="fill:#9e70b1;fill-opacity:1;fill-rule:nonzero;stroke:none;stroke-width:0.35277778"
       d="m 7.2715872,5.29073 -0.020461,0.012 -0.00212,0.0176 0.010583,0.0145 0.513997,0.29951 0.01729,0.001 0.01482,-0.0102 -0.0088,-0.0321 -0.5136439,-0.29951 z m 0.513644,0.53904 c -0.03775,0 -0.07479,-0.01 -0.107244,-0.0289 L 7.1643428,5.50136 c -0.049389,-0.0286 -0.084667,-0.0751 -0.099483,-0.13088 -0.014817,-0.0557 -0.00741,-0.11395 0.02152,-0.16404 0.028222,-0.0498 0.074436,-0.0857 0.1298222,-0.10055 0.055386,-0.0152 0.1128889,-0.007 0.1622778,0.0215 L 7.8921242,5.4269 c 0.101953,0.0596 0.137231,0.19191 0.07832,0.29492 -0.0381,0.0667 -0.109361,0.10795 -0.185209,0.10795"/>
    <path
       style="fill:#9e70b1;fill-opacity:1;fill-rule:nonzero;stroke:none;stroke-width:0.35277778"
       d="M 2.6691472,5.21065 2.1555028,5.51016 c -0.056797,0.0332 -0.0762,0.10618 -0.043392,0.16369 0.021872,0.0385 0.061736,0.06 0.1030111,0.06 l 0.058914,-0.0162 0.5136444,-0.29951 c 0.056797,-0.0328 0.076553,-0.10618 0.043392,-0.16333 -0.032808,-0.0575 -0.1054806,-0.0773 -0.161925,-0.0441"/>
    <path
       style="fill:#9e70b1;fill-opacity:1;fill-rule:nonzero;stroke:none;stroke-width:0.35277778"
       d="m 2.7281972,5.25232 -0.030339,0.008 v 0 l -0.5136444,0.2995 -0.022578,0.0847 0.083961,0.0229 0.5136444,-0.29951 0.028575,-0.0377 -0.006,-0.0473 -0.037747,-0.0289 z M 2.2149055,5.79136 c -0.062442,0 -0.1210027,-0.0339 -0.1524,-0.0885 -0.04833,-0.085 -0.019403,-0.19368 0.064206,-0.24271 L 2.6403559,5.16099 c 0.040569,-0.024 0.087842,-0.0303 0.13335,-0.018 0.045508,0.0124 0.083256,0.0416 0.1068917,0.0829 0.023636,0.0409 0.029986,0.0889 0.017639,0.13476 -0.011995,0.0455 -0.041275,0.084 -0.081845,0.1076 L 2.3027472,5.76776 Z"/>
    <path
       style="fill:#9e70b1;fill-opacity:1;fill-rule:nonzero;stroke:none;stroke-width:0.35277778"
       d="m 2.7281972,5.23337 -0.039864,0.0109 -0.5136444,0.2995 c -0.038453,0.0222 -0.051858,0.072 -0.029633,0.11078 0.02152,0.0374 0.073025,0.0515 0.1100667,0.03 l 0.5136444,-0.29951 0.037394,-0.0494 -0.00776,-0.0617 -0.049389,-0.0381 z M 2.2149055,5.77241 c -0.055739,0 -0.10795,-0.0303 -0.1358194,-0.079 C 2.0360471,5.61751 2.0614471,5.5202 2.1365891,5.47716 L 2.6502335,5.17765 c 0.035983,-0.0212 0.077964,-0.0268 0.1185333,-0.0159 0.040569,0.0109 0.074436,0.037 0.095603,0.0737 0.020814,0.0367 0.026458,0.079 0.015522,0.11994 -0.010936,0.0409 -0.036689,0.0751 -0.073025,0.0963 L 2.2932222,5.75125 Z"/>
    <path
       style="fill:#9e70b1;fill-opacity:1;fill-rule:nonzero;stroke:none;stroke-width:0.35277778"
       d="m 2.7281972,5.29073 -0.011289,0.003 -0.5136444,0.29951 -0.00882,0.0325 0.032103,0.008 0.5136444,-0.29951 0.010936,-0.0145 -0.00247,-0.0176 -0.014111,-0.0109 z M 2.2149055,5.82977 c -0.0762,0 -0.1471083,-0.0413 -0.1852083,-0.10759 C 1.9707832,5.61881 2.0057082,5.48652 2.1080142,5.4269 L 2.6216586,5.12739 c 0.049036,-0.0289 0.1065389,-0.0363 0.1615722,-0.0215 0.055386,0.0148 0.1016,0.0505 0.1305278,0.10055 0.028575,0.0501 0.035983,0.1083 0.021167,0.16404 -0.014817,0.0557 -0.050095,0.1023 -0.099483,0.13123 L 2.3217982,5.80087 c -0.032456,0.019 -0.069497,0.0289 -0.1068917,0.0289"/>
    <path
       style="fill:#9e70b1;fill-opacity:1;fill-rule:nonzero;stroke:none;stroke-width:0.35277778"
       d="m 7.2335272,2.88055 0.059267,-0.0159 0.513644,-0.29951 c 0.0568,-0.0332 0.0762,-0.10654 0.04339,-0.16369 -0.03281,-0.0575 -0.105481,-0.0769 -0.161925,-0.0437 L 7.1742588,2.65691 c -0.056797,0.0332 -0.0762,0.10654 -0.043744,0.16369 0.022225,0.0384 0.062089,0.06 0.1030111,0.06"/>
    <path
       style="fill:#9e70b1;fill-opacity:1;fill-rule:nonzero;stroke:none;stroke-width:0.35277778"
       d="m 7.7468472,2.39943 -0.03034,0.008 -0.5136443,0.29951 -0.022578,0.085 0.083961,0.0226 0.5136443,-0.29951 0.02258,-0.0847 -0.03775,-0.0289 z M 7.2335555,2.93847 c -0.062442,0 -0.1210027,-0.0342 -0.1524,-0.0889 C 7.0328245,2.76487 7.0617525,2.6559 7.1453615,2.60722 L 7.6590052,2.30771 c 0.04057,-0.0236 0.08784,-0.03 0.13335,-0.0176 0.04551,0.012 0.08326,0.0416 0.106892,0.0826 0.04868,0.0847 0.01976,0.19332 -0.06421,0.24271 L 7.3213936,2.91458 Z"/>
    <path
       style="fill:#9e70b1;fill-opacity:1;fill-rule:nonzero;stroke:none;stroke-width:0.35277778"
       d="m 7.7466772,2.37996 -0.03986,0.0109 -0.5136443,0.2995 -0.037394,0.0494 0.00811,0.0617 c 0.021167,0.037 0.072672,0.0511 0.1097139,0.0296 L 7.7872472,2.53155 c 0.03845,-0.0222 0.05186,-0.0723 0.02963,-0.11077 l -0.04904,-0.0381 z M 7.2333855,2.919 C 7.1776465,2.919 7.1257883,2.8887 7.0979189,2.84 7.0767519,2.8033 7.0711079,2.7606 7.0820439,2.7197 7.0926269,2.6791 7.1187329,2.6449 7.1550689,2.6237 L 7.6687132,2.32419 c 0.03598,-0.0212 0.07796,-0.0268 0.118886,-0.0159 0.04022,0.0109 0.07408,0.0374 0.09525,0.0737 0.04304,0.0755 0.01764,0.1725 -0.0575,0.21625 L 7.312058,2.89775 Z"/>
    <path
       style="fill:#9e70b1;fill-opacity:1;fill-rule:nonzero;stroke:none;stroke-width:0.35277778"
       d="m 7.7468472,2.43785 -0.01129,0.003 -0.5136443,0.29986 -0.010936,0.0141 0.00212,0.018 0.032103,0.008 0.5136443,-0.29915 0.01058,-0.0145 -0.0021,-0.018 -0.01446,-0.0109 z M 7.2335555,2.97689 c -0.0762,0 -0.1471083,-0.0416 -0.1852083,-0.10795 -0.028928,-0.0501 -0.036336,-0.1083 -0.021519,-0.16404 0.014817,-0.0557 0.050094,-0.1023 0.099836,-0.13123 l 0.513644,-0.29951 c 0.04868,-0.0286 0.106539,-0.0363 0.161925,-0.0215 0.05503,0.0152 0.101247,0.0508 0.129822,0.10054 0.02857,0.0501 0.03634,0.10831 0.02152,0.16404 -0.01482,0.0557 -0.05009,0.10231 -0.09948,0.13124 L 7.3404515,2.94799 c -0.032455,0.0187 -0.069497,0.0289 -0.1068917,0.0289"/>
  </g>
</svg>
