<svg viewBox="0 0 24 24" xmlns="http://www.w3.org/2000/svg"><g stroke="#1C81A0" fill="none" stroke-linejoin="round"><path d="M7.91 21.5h7.58s0-3 0-4.5c0-.5-3-2-5.5-3v-2s1-.35 1-2.5c.69 0 1-2 .03-2 0-.22.766-1.31.46-2.5 -.5-2-5.5-2-6 0 -2.11-.44-.5 2.21-.5 2.5 -1 0-.7 2 0 2 0 2.15 1 2.5 1 2.5v2c-2.5 1-5.5 2.5-5.5 3 0 1 0 4.5 0 4.5h7.41Z"/><path fill="none" stroke="#1C81A0" stroke-linecap="round" stroke-linejoin="round" d="M18 21.5h5.5s0-3.31 0-4.5c0-.5-2.5-1.2-4.5-2v-1.5s1-.28 1-2c.55 0 .77-2 0-2 0-.17.81-1.07.5-2C20 6 16 6 15.5 7.5c-1.69-.35-.5 1.77-.5 2 -.8 0-.56 2 0 2 0 1.72 1 2 1 2v1"/></g><path fill="none" d="M0 0h24v24H0Z"/></svg>