<svg viewBox="0 0 24 24" xmlns="http://www.w3.org/2000/svg"><g stroke-linecap="round" stroke="#1C81A0" fill="none" stroke-linejoin="round"><path d="M5.5 8.493c0 .55.44 1 1 1h1l3 3v-3h7c.55 0 1-.45 1-1v-7c0-.552-.45-1-1-1h-11c-.56 0-1 .44-1 1v7Z"/><path d="M19.5 11.5a2.5 2.5 0 1 0 0 5 2.5 2.5 0 1 0 0-5Z"/><path d="M23.5 20.508h-8c0-2.21 1.79-4 4-4s4 1.79 4 4Z"/><path d="M4.5 11.5a2.5 2.5 0 1 0 0 5 2.5 2.5 0 1 0 0-5Z"/><path d="M8.5 20.508h-8c0-2.21 1.79-4 4-4s4 1.79 4 4Z"/><path d="M12 14.5a2.5 2.5 0 1 0 0 5 2.5 2.5 0 1 0 0-5Z"/><path d="M16 23.508H8c0-2.21 1.79-4 4-4s4 1.79 4 4Z"/><path d="M8.5 2.49l6.97 0"/><path d="M8.5 4.49l6.97 0"/><path d="M8.5 6.49l6.97 0"/></g><path fill="none" d="M0 0h24v24H0Z"/></svg>