<?xml version="1.0" encoding="UTF-8" standalone="no"?>
<svg
   xmlns:dc="http://purl.org/dc/elements/1.1/"
   xmlns:cc="http://creativecommons.org/ns#"
   xmlns:rdf="http://www.w3.org/1999/02/22-rdf-syntax-ns#"
   xmlns:svg="http://www.w3.org/2000/svg"
   xmlns="http://www.w3.org/2000/svg"
   viewBox="0 0 10 10"
   version="1.1">
  <g>
    <path
       d="m 5.00007,2.21464 c 0.047272,0 0.1121833,0.035983 0.1354667,0.076906 l 3.0388277,5.2606221 c 0.023636,0.040922 0.023636,0.1128888 0,0.1538111 -0.023636,0.040569 -0.088195,0.079375 -0.1354667,0.079375 H 1.9612423 c -0.047272,0 -0.1121833,-0.038806 -0.1358195,-0.079375 -0.023283,-0.040922 -0.023283,-0.1128889 0,-0.1538111 L 4.8642506,2.2915456 C 4.8878867,2.2506233 4.9527978,2.21464 5.00007,2.21464 m 0,-0.4914194 c -0.2331861,0 -0.4445,0.1202972 -0.5605639,0.3224388 L 1.4006784,7.3066343 c -0.1164167,0.2014361 -0.1167694,0.4434417 0,0.6448778 0.1164167,0.2014361 0.3277306,0.3256139 0.5605639,0.3252611 h 6.0776554 c 0.2324806,0 0.4437944,-0.123825 0.5605639,-0.3252611 0.1164167,-0.2014361 0.1164167,-0.4434417 0,-0.6448778 L 5.5606339,2.0456594 C 5.44457,1.8435178 5.2332561,1.7232206 5.00007,1.7232206"
       style="fill:#f99c1c;fill-opacity:1;fill-rule:nonzero;stroke:none;stroke-width:0.35277778"/>
    <path
       d="m 4.99418,6.49172 c 0.225425,0 0.4081639,0.1830917 0.4152194,0.4081639 0,0.2250722 -0.1827388,0.4081639 -0.4081638,0.4081639 -0.2183695,0 -0.4081639,-0.1830917 -0.4081639,-0.4011084 C 4.5860161,6.6818672 4.7691078,6.49172 4.99418,6.49172 M 4.6212939,3.8451812 C 4.7056078,3.6620895 4.9028106,3.5636645 5.0996606,3.6130534 5.2898078,3.6620895 5.416455,3.8451812 5.4023439,4.0494395 5.3952883,4.1831423 5.3885855,4.3097895 5.38153,4.4434923 5.3533078,4.9363228 5.3250855,5.4288006 5.3039189,5.9145756 5.2968633,6.0765006 5.1631606,6.2031478 5.0012356,6.2031478 4.8326078,6.2031478 4.7056078,6.0765006 4.6985522,5.9004645 4.6914967,5.8020395 4.6914967,5.7032617 4.6844411,5.6048367 4.6636272,5.2880422 4.6491633,4.9712478 4.6283495,4.6473978 4.6142383,4.4434923 4.6071828,4.2392339 4.5930717,4.0353284 c -0.00706,-0.056445 0,-0.1266472 0.028222,-0.1901472"
       style="fill:#f99c1c;fill-opacity:1;fill-rule:nonzero;stroke:none;stroke-width:0.35277778"/>
  </g>
</svg>
