<?xml version="1.0" encoding="UTF-8"?>
<svg width="1409px" height="991px" viewBox="0 0 1409 991" version="1.1" xmlns="http://www.w3.org/2000/svg" xmlns:xlink="http://www.w3.org/1999/xlink">
    <title>Group</title>
    <g id="-" stroke="none" stroke-width="1" fill="none" fill-rule="evenodd" opacity="0.1">
        <g id="Group" transform="translate(0.304688, 0.046875)" fill-rule="nonzero">
            <path d="M32.2240718,171.903225 C12.1441676,230.804277 0.0962250519,293.721311 0.0962250519,359.315664 C0.0962250519,707.367337 314.681391,989.824657 702.892872,989.824657 C1091.10435,989.824657 1407.02818,708.705998 1407.02818,359.315664 C1407.02818,249.545521 1374.90033,145.130019 1320.01526,55.4397806 C1162.05335,31.3438956 943.851723,4.57068997 722.972777,0.554709123 C495.400529,-3.46127172 230.345793,87.5676274 32.2240718,171.903225 Z" id="Path" fill="#FFFFFF"></path>
            <path d="M381.614405,295.059971 C397.678328,260.254804 420.435553,244.19088 443.192778,216.079014 C440.515457,209.385713 435.160816,186.628488 435.160816,179.935187 C435.160816,145.130019 463.272682,118.356814 496.739189,118.356814 C504.771151,118.356814 512.803113,119.695474 519.496414,122.372795 C622.573256,43.3918381 757.777944,9.92533109 894.321293,40.7145175 C906.369235,43.3918381 918.417178,47.407819 930.46512,50.0851395 C796.599092,31.3438956 643.99182,79.5356657 540.914979,162.532603 C543.592299,170.564565 552.962921,190.644469 552.962921,200.015091 C552.962921,234.820258 530.205696,242.85222 496.739189,242.85222 C488.707228,242.85222 482.013926,241.51356 473.981964,238.836239 C451.22474,269.625426 421.774214,329.865138 408.387611,367.347626 C465.950003,418.216717 516.819093,436.957961 583.752107,462.392506 C583.752107,459.715185 586.429428,455.699205 586.429428,453.021884 C586.429428,349.945042 677.458327,265.609445 780.535169,265.609445 C872.902728,265.609445 950.545024,332.542459 965.270288,420.894037 C1012.1234,391.443511 1056.29919,368.686286 1089.76569,325.849156 C1081.73373,316.478535 1073.70177,288.366669 1073.70177,274.980067 C1073.70177,244.19088 1099.13632,218.756335 1129.9255,218.756335 C1133.94148,218.756335 1137.95746,218.756335 1143.3121,220.094995 C1160.71469,183.951168 1174.10129,146.46868 1182.13325,107.647532 C1020.15536,-12.8318937 706.908853,4.57068997 706.908853,4.57068997 C706.908853,4.57068997 457.918041,-8.81591284 289.246846,74.1810246 C301.294788,151.823321 333.422635,229.465617 381.614405,295.059971" id="Path" fill="#373535"></path>
            <path d="M1155.36005,248.206861 C1167.40799,258.916143 1172.76263,266.948105 1178.11727,276.318727 C1192.84254,303.091933 1163.39201,328.526478 1131.26416,328.526478 C1128.58684,328.526478 1124.57086,328.526478 1121.89354,327.187818 C1087.08837,382.072889 1025.51,451.683224 970.624929,487.827051 C1054.96053,501.213654 1133.94148,534.680161 1195.51986,586.887912 C1241.03431,505.229635 1275.83947,386.08887 1275.83947,285.689349 C1275.83947,209.385713 1242.37297,153.16198 1191.50387,111.663512 C1190.16521,153.16198 1167.40799,210.724373 1155.36005,248.206861" id="Path" fill="#373535"></path>
            <path d="M475.320625,767.60705 C503.432491,689.964754 571.704165,631.063701 637.298519,578.85595 C627.927897,565.469348 613.202634,533.341501 607.847993,518.616238 C528.867036,494.520353 459.256701,449.005903 404.37163,390.104851 C404.37163,391.443511 403.03297,394.120832 403.03297,395.459492 C392.323687,440.973942 390.985027,487.827051 396.339668,532.002841 C433.822156,538.696142 463.272682,572.162649 463.272682,612.322457 C463.272682,636.418343 441.854118,669.88485 425.790194,685.948773 C441.854118,720.75394 453.90206,739.495184 475.320625,767.60705" id="Path" fill="#373535"></path>
            <path d="M469.965984,831.862744 C436.499477,798.396236 413.742252,732.801883 392.323687,691.303414 C388.307706,691.303414 384.291726,692.642074 380.275745,692.642074 C334.761295,692.642074 287.908185,655.159586 298.617466,610.983797 C303.972109,586.887912 321.374692,570.823989 348.147898,557.437386 C341.454597,506.568295 340.115936,435.6193 352.163879,383.411549 C354.841199,368.686286 362.873161,361.992985 366.889142,347.267722 C317.358712,274.980067 285.230865,178.596526 285.230865,83.5516465 L285.230865,72.8423643 C200.895267,115.679493 137.978234,181.273847 137.978234,285.689349 C137.978234,517.277578 271.844262,744.849825 469.965984,833.201404 L469.965984,831.862744" id="Path" fill="#373535"></path>
            <path d="M958.576986,511.922936 C933.142441,584.210592 863.532106,637.757003 781.873829,637.757003 C737.69804,637.757003 697.538231,623.03174 666.749045,597.597194 C601.154691,648.466285 540.914979,738.156524 511.464452,817.13748 C524.851055,831.862744 534.221677,843.910686 550.2856,857.297289 C595.80005,869.345231 660.055743,857.297289 709.586174,857.297289 C909.046556,857.297289 1087.08837,768.94571 1188.82655,612.322457 C1119.21622,564.130687 1038.8966,518.616238 958.576986,511.922936" id="Path" fill="#373535"></path>
            <polygon id="Path" fill="#FFFFFF" points="959.915646 490.504372 1132.60282 449.005903 958.576986 439.635281 1100.47498 332.542459 939.835742 390.104851 1048.26722 238.836239 896.998613 339.23576 949.206364 162.532603 846.129523 308.446574 843.452202 123.711455 775.180528 288.366669 718.956796 122.372795 721.634116 317.817196 623.911916 142.452699 677.458327 328.526478 518.157754 213.401694 642.65316 370.024947 444.531438 297.737291 599.816031 412.862076 400.355649 419.555377 605.170672 471.763128 400.355649 515.938917 602.493351 530.66418 432.483496 639.095663 607.847993 576.17863 486.029907 730.124562 639.975839 605.629156 585.090768 811.782839 704.231533 643.111644 688.167609 841.233365 755.100623 660.514228 812.663016 849.265327 826.049618 659.175567 911.723876 821.153461 860.854786 636.418343 1016.13938 756.897768 915.739857 602.951835 1087.08837 669.88485 955.899666 541.373463 1131.26416 554.760065"></polygon>
        </g>
    </g>
</svg>