<?xml version="1.0" encoding="UTF-8" standalone="no"?>
<svg
   xmlns:dc="http://purl.org/dc/elements/1.1/"
   xmlns:cc="http://creativecommons.org/ns#"
   xmlns:rdf="http://www.w3.org/1999/02/22-rdf-syntax-ns#"
   xmlns:svg="http://www.w3.org/2000/svg"
   xmlns="http://www.w3.org/2000/svg"
   viewBox="0 0 10 10"
   version="1.1">
  <g>
    <path
       d="M 6.46279,5.77399 C 7.1373011,8.5898622 7.46609,8.3453872 5.0040539,6.8369094 2.5169706,8.3626733 2.8542262,8.6067955 3.537204,5.77399 1.3199957,3.8855706 1.1933484,4.2820928 4.0938873,4.0541984 c 1.1126611,-2.6719389 0.708025,-2.6719389 1.8122194,0 C 8.7978261,4.2820928 8.6715316,3.8855706 6.46279,5.77399 M 8.4609233,4.1723789 C 8.3427427,3.8100762 7.8707261,3.7931428 7.5504039,3.7765623 7.0865011,3.7423428 6.6314178,3.7254095 6.167515,3.6922484 5.99924,3.2622123 5.8387261,2.8318234 5.6616317,2.4106067 5.5438039,2.1156845 5.3836428,1.6683623 5.0040539,1.6683623 4.6163512,1.6683623 4.45619,2.1156845 4.3383623,2.4106067 4.1697345,2.8318234 4.0092206,3.2622123 3.8324789,3.6922484 3.3685762,3.7254095 2.9134929,3.7423428 2.4499429,3.7765623 2.1292679,3.7931428 1.6572512,3.8100762 1.5390707,4.1723789 1.4212429,4.5346817 1.800479,4.8299567 2.0368401,5.0320983 2.3991429,5.3273733 2.7617984,5.6141817 3.1156345,5.9094567 2.9978067,6.36454 2.8796262,6.80269 2.7617984,7.2577733 2.6855984,7.561515 2.5508373,8.0165983 2.8626929,8.2444927 3.1664345,8.4720344 3.562604,8.2025122 3.8324789,8.0335316 4.2201817,7.7894094 4.6078845,7.5280011 5.0040539,7.2831733 5.3921095,7.5280011 5.7713456,7.78059 6.167515,8.0254177 6.43739,8.1936927 6.8250928,8.4554538 7.1373011,8.2360261 7.44069,8.0081316 7.3143955,7.5530483 7.2381955,7.2500122 7.1203678,6.80269 7.0021872,6.3557205 6.8928261,5.9094567 7.2466622,5.6141817 7.6008511,5.3273733 7.9631539,5.0320983 8.199515,4.8299567 8.5787511,4.5346817 8.4609233,4.1723789"
       style="fill:#3771b8;fill-opacity:1;fill-rule:nonzero;stroke:none;stroke-width:0.35277778"/>
    <path
       d="M 6.46279,5.77399 6.406346,5.787748 c 0.1361722,0.5676195 0.2578805,1.0110611 0.3457222,1.3444361 0.087842,0.3316111 0.1404055,0.5573889 0.1397,0.6720417 3.527e-4,0.041275 -0.00741,0.065264 -0.012347,0.072319 l -0.021872,0.00741 C 6.827915,7.8850122 6.7601817,7.86314 6.6674011,7.8137511 6.3862372,7.6666427 5.8694178,7.2990483 5.0343928,6.786815 L 5.0040538,6.768471 4.9740678,6.787168 C 4.4106817,7.13289 3.9919345,7.4129955 3.6906623,7.6052594 3.5400262,7.7019205 3.4186706,7.7763566 3.3248317,7.8253927 3.2316984,7.8751344 3.1632595,7.8977122 3.1336262,7.8966538 l -0.021167,-0.00776 c -0.00494,-0.006 -0.0127,-0.029986 -0.011994,-0.070203 -0.00106,-0.1146528 0.052564,-0.3414889 0.1421694,-0.6755695 0.0889,-0.3351389 0.2130778,-0.7828138 0.3510139,-1.3553722 l 0.00847,-0.034572 -0.027164,-0.023283 C 3.0429623,5.2772789 2.6312706,4.9555456 2.3539873,4.7258872 2.2153456,4.6115872 2.1105707,4.519865 2.0424845,4.4486039 1.9733401,4.3784011 1.9479401,4.3251317 1.9511151,4.31349 L 1.9613461,4.297968 C 1.9818068,4.2806817 2.048129,4.2573984 2.1514929,4.2425817 2.464054,4.1953095 3.105404,4.1903706 4.0981206,4.1120539 l 0.035278,-0.00282 0.013758,-0.032808 C 4.4258512,3.4075567 4.6096484,2.9052012 4.7447623,2.5732373 4.8121428,2.4067262 4.8678817,2.283254 4.9148011,2.2052901 c 0.023283,-0.039158 0.04445,-0.066675 0.060678,-0.081492 l 0.027517,-0.015875 0.027517,0.015875 c 0.061031,0.052917 0.155575,0.2547056 0.2818694,0.5817306 0.1287639,0.3277305 0.29845,0.7852833 0.5404555,1.3708944 l 0.013406,0.032808 0.03563,0.00282 c 0.7545917,0.059267 1.3045722,0.076906 1.6626417,0.1023056 0.1785055,0.0127 0.3097389,0.028575 0.3898194,0.0508 0.039864,0.010583 0.066322,0.023283 0.077964,0.032456 l 0.010583,0.015875 c 0.00282,0.011995 -0.022225,0.065617 -0.091369,0.1354667 C 7.7472539,4.6645039 7.2191455,5.0515011 6.4250428,5.7302456 l -0.027164,0.022931 0.00847,0.034572 0.056444,-0.013758 0.037394,0.044097 C 7.0282928,5.3672372 7.4368094,5.0462095 7.7151511,4.81514 7.8544983,4.6997817 7.96139,4.6066484 8.0354733,4.5290372 8.1081455,4.450015 8.1554177,4.3900428 8.1585927,4.31349 8.1596511,4.2715095 8.136015,4.2305873 8.1039122,4.2073039 8.0481733,4.1646178 7.9705622,4.1459206 7.8601427,4.1279289 7.5310011,4.0788928 6.8988233,4.0746595 5.9110456,3.9970484 l -0.00494,0.05715 0.053622,-0.021872 C 5.6842095,3.3655762 5.5028817,2.8653373 5.367415,2.5298456 5.2996817,2.3612179 5.24359,2.2349234 5.1906734,2.1460234 5.1638623,2.1012206 5.1384623,2.0655901 5.1091817,2.0384262 5.0802539,2.0123206 5.0442706,1.9918595 5.0029956,1.9918595 c -0.040922,0 -0.076906,0.020461 -0.1058333,0.046567 C 4.79909,2.1326179 4.7161873,2.3319373 4.5838956,2.6631956 4.4537206,2.9923373 4.2833289,3.4484789 4.0402651,4.0323261 l 0.053622,0.021872 -0.00494,-0.05715 c -0.7542389,0.058914 -1.3028083,0.075847 -1.6665222,0.1016 -0.1820333,0.013406 -0.3171472,0.028222 -0.4134555,0.054328 -0.047978,0.013406 -0.087136,0.028928 -0.1192389,0.053975 -0.03175,0.023636 -0.055386,0.064206 -0.054681,0.1065389 0.00317,0.076553 0.0508,0.136525 0.123825,0.2155472 0.2218972,0.231775 0.7450667,0.6113639 1.5409333,1.28905 L 3.537204,5.77399 3.4811123,5.7609372 C 3.343529,6.3313789 3.2200567,6.77729 3.1304512,7.1134872 3.0411984,7.4507427 2.9851067,7.6744038 2.9844012,7.81869 c 3.528e-4,0.051506 0.0067,0.095603 0.031397,0.1347611 0.025047,0.039158 0.073731,0.060678 0.1178278,0.059267 0.070203,-0.00106 0.1446389,-0.032455 0.2451805,-0.084667 C 3.6765512,7.771065 4.1919595,7.402765 5.0343928,6.8859455 l -0.030339,-0.049036 -0.029986,0.049036 c 0.5549194,0.3400778 0.9676694,0.61595 1.2682361,0.8075083 0.1502833,0.096308 0.2719917,0.1710973 0.371475,0.2229556 0.099483,0.051506 0.1739194,0.08255 0.2437694,0.083608 0.04445,0.00106 0.093486,-0.019756 0.1185334,-0.059619 C 7.0007761,7.90124 7.0071261,7.8564372 7.0074789,7.8042261 7.0067733,7.6606455 6.95174,7.4373372 6.8638983,7.1025511 6.7760567,6.7684705 6.6543483,6.32644 6.5192344,5.7609372 L 6.46279,5.77399 6.5001844,5.8180872 Z M 8.4609233,4.1723789 8.5159566,4.1543873 C 8.4496344,3.9494234 8.2795955,3.8421789 8.097915,3.7889095 7.9151761,3.7349345 7.7130344,3.7268206 7.5532261,3.7187067 l -0.00282,0.057856 0.00423,-0.057856 C 7.0893233,3.6844873 6.63424,3.6675539 6.1717483,3.6343928 l -0.00423,0.057856 0.053975,-0.02152 C 6.053215,3.2413984 5.8930539,2.8113623 5.7152539,2.388029 L 5.6616319,2.410607 5.7156069,2.388735 C 5.6566928,2.241979 5.58649,2.0528901 5.47854,1.8962568 5.3723539,1.7396234 5.2188956,1.610154 5.0040539,1.6105068 4.7860373,1.610154 4.6301095,1.7392706 4.5225123,1.895904 4.4135039,2.0528901 4.3433012,2.241979 4.2843873,2.3887345 4.1154067,2.8117151 3.9552456,3.2410456 3.7788567,3.6696706 l 0.053622,0.022578 -0.00423,-0.057856 c -0.4624916,0.033161 -0.917575,0.050094 -1.3828888,0.084314 l 0.00459,0.057856 -0.00317,-0.057856 c -0.1598084,0.00811 -0.36195,0.016228 -0.5446889,0.070203 -0.1816806,0.053269 -0.3517194,0.1605139 -0.4180417,0.3654778 -0.016933,0.052917 -0.025047,0.104775 -0.025047,0.155575 0.00529,0.3425472 0.3383139,0.5898444 0.5401028,0.7662333 l 3.528e-4,3.527e-4 7.055e-4,7.056e-4 C 2.362819,5.372529 2.7254745,5.6593373 3.0786051,5.9539068 l 0.037042,-0.04445 -0.055739,-0.014464 C 2.9417151,6.3497233 2.8238873,6.7878733 2.7057067,7.2433094 v 3.528e-4 L 2.705354,7.244015 C 2.666196,7.4010011 2.609046,7.6042011 2.608693,7.8024622 2.607633,7.98379 2.660199,8.1686455 2.8288263,8.2914122 l 0.033867,-0.046919 -0.034572,0.046567 c 0.093133,0.06985 0.1975556,0.098778 0.3005667,0.098425 0.2726972,-0.00176 0.5386917,-0.1855611 0.7344833,-0.3069167 v 0 C 4.2519317,7.83774 4.6396345,7.5763316 5.0347456,7.332915 L 5.0040536,7.283173 4.9733616,7.332209 c 0.3869972,0.2441222 0.766586,0.4970639 1.1638138,0.7422444 H 6.1368233 C 6.3329678,8.1954566 6.59614,8.3757261 6.86919,8.3778427 6.9714955,8.3781955 7.075565,8.3503261 7.1704622,8.2832983 l 7.056e-4,-7.056e-4 7.055e-4,-3.528e-4 C 7.3376789,8.1587677 7.3888316,7.9714427 7.3881261,7.7890566 7.3877733,7.5925594 7.3334455,7.3921816 7.2942872,7.2359011 V 7.2355483 7.2351955 C 7.1761067,6.7878733 7.0582789,6.3412567 6.9489178,5.8956983 l -0.056092,0.013758 0.037042,0.04445 C 7.2833511,5.6593372 7.63754,5.3721761 7.9998427,5.0772539 l 7.056e-4,-7.056e-4 3.528e-4,-3.527e-4 C 8.20269,4.8998067 8.5357122,4.6525095 8.5410038,4.3099623 c 0,-0.0508 -0.00811,-0.1026584 -0.025047,-0.155575 l -0.055033,0.017992 -0.055386,0.018345 c 0.013406,0.041275 0.019403,0.080433 0.019403,0.1192389 0.00529,0.2568222 -0.2899834,0.5023555 -0.4995334,0.6783916 l 0.037747,0.043744 -0.036336,-0.04445 C 7.564515,5.2822178 7.2099733,5.5690261 6.8554317,5.8650067 l -0.027517,0.022578 0.00847,0.035631 c 0.1097138,0.4469694 0.2278944,0.8942916 0.346075,1.3412611 l 0.055739,-0.014464 -0.056092,0.013758 c 0.039511,0.1569861 0.090311,0.3506611 0.089958,0.5252861 -7.056e-4,0.1647472 -0.041981,0.3040945 -0.1696861,0.4007556 l 0.034925,0.046214 -0.033514,-0.047272 C 7.0286455,8.2409649 6.95174,8.2617788 6.86919,8.2621316 6.6494094,8.2638955 6.3947039,8.1005594 6.1982067,7.9760288 V 7.9756761 C 5.8030956,7.7322594 5.4238595,7.4796705 5.0350984,7.23449 L 5.0044064,7.215087 4.9737144,7.234137 C 4.5761345,7.4796705 4.1884317,7.7407261 3.8014345,7.9848483 h 3.528e-4 C 3.6056428,8.1083205 3.346704,8.2762427 3.1286873,8.2741261 3.0464901,8.2734205 2.9706429,8.2522538 2.8976179,8.1979261 L 2.8972651,8.1975733 H 2.8969123 C 2.7667373,8.1023233 2.7254623,7.9654455 2.724404,7.8024622 2.7240512,7.6271316 2.7780262,7.4309872 2.8178901,7.2718844 L 2.8175373,7.27259 C 2.9357179,6.8175066 3.0535456,6.3793567 3.1717262,5.9239206 l 0.00917,-0.035983 -0.027869,-0.02293 C 2.7981345,5.5686733 2.4351262,5.281865 2.0731762,4.9876484 l -0.036336,0.04445 0.037747,-0.043744 C 1.8650373,4.8123178 1.5697623,4.5667845 1.575054,4.3099623 c 0,-0.038806 0.006,-0.077964 0.019403,-0.1192389 0.051858,-0.1580445 0.1767416,-0.2405945 0.3407833,-0.2906889 0.1629833,-0.048331 0.3570111,-0.057856 0.517525,-0.06597 h 7.055e-4 l 3.528e-4,-3.527e-4 c 0.4624917,-0.033514 0.917575,-0.050447 1.3828889,-0.083608 l 0.035631,-0.00282 0.013406,-0.033514 c 0.1778,-0.4310944 0.3379611,-0.8607777 0.5062361,-1.2819944 0.059267,-0.1481667 0.1280583,-0.3294944 0.2257778,-0.4699 0.098778,-0.1404055 0.2169583,-0.23495 0.3862916,-0.2353028 0.1647472,3.528e-4 0.2811639,0.094545 0.3792361,0.23495 0.096661,0.1407584 0.1654528,0.3220861 0.2247195,0.4702528 l 3.527e-4,7.056e-4 v 3.527e-4 c 0.1763889,0.4205111 0.33655,0.8498417 0.5051778,1.2802306 l 0.013406,0.034219 0.036336,0.00282 c 0.4653139,0.033161 0.9203972,0.050095 1.3828888,0.083608 l 3.528e-4,3.527e-4 h 7.056e-4 c 0.1601611,0.00811 0.3545416,0.017639 0.517525,0.06597 0.1640416,0.050094 0.2889249,0.1326444 0.3407833,0.2906889 z"
       style="fill:#3771b8;fill-opacity:1;fill-rule:nonzero;stroke:none;stroke-width:0.35277778"/>
    <path
       d="M 6.46279,5.77399 C 7.1373011,8.5898622 7.46609,8.3453872 5.0040539,6.8369094 2.5169706,8.3626733 2.8542262,8.6067955 3.537204,5.77399 1.3199957,3.8855706 1.1933484,4.2820928 4.0938873,4.0541984 c 1.1126611,-2.6719389 0.708025,-2.6719389 1.8122194,0 C 8.7978261,4.2820928 8.6715316,3.8855706 6.46279,5.77399 M 8.4609233,4.1723789 C 8.3427427,3.8100762 7.8707261,3.7931428 7.5504039,3.7765623 7.0865011,3.7423428 6.6314178,3.7254095 6.167515,3.6922484 5.99924,3.2622123 5.8387261,2.8318234 5.6616317,2.4106067 5.5438039,2.1156845 5.3836428,1.6683623 5.0040539,1.6683623 4.6163512,1.6683623 4.45619,2.1156845 4.3383623,2.4106067 4.1697345,2.8318234 4.0092206,3.2622123 3.8324789,3.6922484 3.3685762,3.7254095 2.9134929,3.7423428 2.4499429,3.7765623 2.1292679,3.7931428 1.6572512,3.8100762 1.5390707,4.1723789 1.4212429,4.5346817 1.800479,4.8299567 2.0368401,5.0320983 2.3991429,5.3273733 2.7617984,5.6141817 3.1156345,5.9094567 2.9978067,6.36454 2.8796262,6.80269 2.7617984,7.2577733 2.6855984,7.561515 2.5508373,8.0165983 2.8626929,8.2444927 3.1664345,8.4720344 3.562604,8.2025122 3.8324789,8.0335316 4.2201817,7.7894094 4.6078845,7.5280011 5.0040539,7.2831733 5.3921095,7.5280011 5.7713456,7.78059 6.167515,8.0254177 6.43739,8.1936927 6.8250928,8.4554538 7.1373011,8.2360261 7.44069,8.0081316 7.3143955,7.5530483 7.2381955,7.2500122 7.1203678,6.80269 7.0021872,6.3557205 6.8928261,5.9094567 7.2466622,5.6141817 7.6008511,5.3273733 7.9631539,5.0320983 8.199515,4.8299567 8.5787511,4.5346817 8.4609233,4.1723789"
       style="fill:#3771b8;fill-opacity:1;fill-rule:nonzero;stroke:none;stroke-width:0.35277778"/>
    <path
       d="M 6.46279,5.77399 6.406346,5.787748 c 0.1361722,0.5676195 0.2578805,1.0110611 0.3457222,1.3444361 0.087842,0.3316111 0.1404055,0.5573889 0.1397,0.6720417 3.527e-4,0.041275 -0.00741,0.065264 -0.012347,0.072319 l -0.021872,0.00741 C 6.827915,7.8850122 6.7601817,7.86314 6.6674011,7.8137511 6.3862372,7.6666427 5.8694178,7.2990483 5.0343928,6.786815 L 5.0040538,6.768471 4.9740678,6.787168 C 4.4106817,7.13289 3.9919345,7.4129955 3.6906623,7.6052594 3.5400262,7.7019205 3.4186706,7.7763566 3.3248317,7.8253927 3.2316984,7.8751344 3.1632595,7.8977122 3.1336262,7.8966538 l -0.021167,-0.00776 c -0.00494,-0.006 -0.0127,-0.029986 -0.011994,-0.070203 -0.00106,-0.1146528 0.052564,-0.3414889 0.1421694,-0.6755695 0.0889,-0.3351389 0.2130778,-0.7828138 0.3510139,-1.3553722 l 0.00847,-0.034572 -0.027164,-0.023283 C 3.0429623,5.2772789 2.6312706,4.9555456 2.3539873,4.7258872 2.2153456,4.6115872 2.1105707,4.519865 2.0424845,4.4486039 1.9733401,4.3784011 1.9479401,4.3251317 1.9511151,4.31349 L 1.9613461,4.297968 C 1.9818068,4.2806817 2.048129,4.2573984 2.1514929,4.2425817 2.464054,4.1953095 3.105404,4.1903706 4.0981206,4.1120539 l 0.035278,-0.00282 0.013758,-0.032808 C 4.4258512,3.4075567 4.6096484,2.9052012 4.7447623,2.5732373 4.8121428,2.4067262 4.8678817,2.283254 4.9148011,2.2052901 c 0.023283,-0.039158 0.04445,-0.066675 0.060678,-0.081492 l 0.027517,-0.015875 0.027517,0.015875 c 0.061031,0.052917 0.155575,0.2547056 0.2818694,0.5817306 0.1287639,0.3277305 0.29845,0.7852833 0.5404555,1.3708944 l 0.013406,0.032808 0.03563,0.00282 c 0.7545917,0.059267 1.3045722,0.076906 1.6626417,0.1023056 0.1785055,0.0127 0.3097389,0.028575 0.3898194,0.0508 0.039864,0.010583 0.066322,0.023283 0.077964,0.032456 l 0.010583,0.015875 c 0.00282,0.011995 -0.022225,0.065617 -0.091369,0.1354667 C 7.7472539,4.6645039 7.2191455,5.0515011 6.4250428,5.7302456 l -0.027164,0.022931 0.00847,0.034572 0.056444,-0.013758 0.037394,0.044097 C 7.0282928,5.3672372 7.4368094,5.0462095 7.7151511,4.81514 7.8544983,4.6997817 7.96139,4.6066484 8.0354733,4.5290372 8.1081455,4.450015 8.1554177,4.3900428 8.1585927,4.31349 8.1596511,4.2715095 8.136015,4.2305873 8.1039122,4.2073039 8.0481733,4.1646178 7.9705622,4.1459206 7.8601427,4.1279289 7.5310011,4.0788928 6.8988233,4.0746595 5.9110456,3.9970484 l -0.00494,0.05715 0.053622,-0.021872 C 5.6842095,3.3655762 5.5028817,2.8653373 5.367415,2.5298456 5.2996817,2.3612179 5.24359,2.2349234 5.1906734,2.1460234 5.1638623,2.1012206 5.1384623,2.0655901 5.1091817,2.0384262 5.0802539,2.0123206 5.0442706,1.9918595 5.0029956,1.9918595 c -0.040922,0 -0.076906,0.020461 -0.1058333,0.046567 C 4.79909,2.1326179 4.7161873,2.3319373 4.5838956,2.6631956 4.4537206,2.9923373 4.2833289,3.4484789 4.0402651,4.0323261 l 0.053622,0.021872 -0.00494,-0.05715 c -0.7542389,0.058914 -1.3028083,0.075847 -1.6665222,0.1016 -0.1820333,0.013406 -0.3171472,0.028222 -0.4134555,0.054328 -0.047978,0.013406 -0.087136,0.028928 -0.1192389,0.053975 -0.03175,0.023636 -0.055386,0.064206 -0.054681,0.1065389 0.00317,0.076553 0.0508,0.136525 0.123825,0.2155472 0.2218972,0.231775 0.7450667,0.6113639 1.5409333,1.28905 L 3.537204,5.77399 3.4811123,5.7609372 C 3.343529,6.3313789 3.2200567,6.77729 3.1304512,7.1134872 3.0411984,7.4507427 2.9851067,7.6744038 2.9844012,7.81869 c 3.528e-4,0.051506 0.0067,0.095603 0.031397,0.1347611 0.025047,0.039158 0.073731,0.060678 0.1178278,0.059267 0.070203,-0.00106 0.1446389,-0.032455 0.2451805,-0.084667 C 3.6765512,7.771065 4.1919595,7.402765 5.0343928,6.8859455 l -0.030339,-0.049036 -0.029986,0.049036 c 0.5549194,0.3400778 0.9676694,0.61595 1.2682361,0.8075083 0.1502833,0.096308 0.2719917,0.1710973 0.371475,0.2229556 0.099483,0.051506 0.1739194,0.08255 0.2437694,0.083608 0.04445,0.00106 0.093486,-0.019756 0.1185334,-0.059619 C 7.0007761,7.90124 7.0071261,7.8564372 7.0074789,7.8042261 7.0067733,7.6606455 6.95174,7.4373372 6.8638983,7.1025511 6.7760567,6.7684705 6.6543483,6.32644 6.5192344,5.7609372 L 6.46279,5.77399 6.5001844,5.8180872 Z M 8.4609233,4.1723789 8.5159566,4.1543873 C 8.4496344,3.9494234 8.2795955,3.8421789 8.097915,3.7889095 7.9151761,3.7349345 7.7130344,3.7268206 7.5532261,3.7187067 l -0.00282,0.057856 0.00423,-0.057856 C 7.0893233,3.6844873 6.63424,3.6675539 6.1717483,3.6343928 l -0.00423,0.057856 0.053975,-0.02152 C 6.053215,3.2413984 5.8930539,2.8113623 5.7152539,2.388029 L 5.6616319,2.410607 5.7156069,2.388735 C 5.6566928,2.241979 5.58649,2.0528901 5.47854,1.8962568 5.3723539,1.7396234 5.2188956,1.610154 5.0040539,1.6105068 4.7860373,1.610154 4.6301095,1.7392706 4.5225123,1.895904 4.4135039,2.0528901 4.3433012,2.241979 4.2843873,2.3887345 4.1154067,2.8117151 3.9552456,3.2410456 3.7788567,3.6696706 l 0.053622,0.022578 -0.00423,-0.057856 c -0.4624916,0.033161 -0.917575,0.050094 -1.3828888,0.084314 l 0.00459,0.057856 -0.00317,-0.057856 c -0.1598084,0.00811 -0.36195,0.016228 -0.5446889,0.070203 -0.1816806,0.053269 -0.3517194,0.1605139 -0.4180417,0.3654778 -0.016933,0.052917 -0.025047,0.104775 -0.025047,0.155575 0.00529,0.3425472 0.3383139,0.5898444 0.5401028,0.7662333 l 3.528e-4,3.527e-4 7.055e-4,7.056e-4 C 2.362819,5.372529 2.7254745,5.6593373 3.0786051,5.9539068 l 0.037042,-0.04445 -0.055739,-0.014464 C 2.9417151,6.3497233 2.8238873,6.7878733 2.7057067,7.2433094 v 3.528e-4 L 2.705354,7.244015 C 2.666196,7.4010011 2.609046,7.6042011 2.608693,7.8024622 2.607633,7.98379 2.660199,8.1686455 2.8288263,8.2914122 l 0.033867,-0.046919 -0.034572,0.046567 c 0.093133,0.06985 0.1975556,0.098778 0.3005667,0.098425 0.2726972,-0.00176 0.5386917,-0.1855611 0.7344833,-0.3069167 v 0 C 4.2519317,7.83774 4.6396345,7.5763316 5.0347456,7.332915 L 5.0040536,7.283173 4.9733616,7.332209 c 0.3869972,0.2441222 0.766586,0.4970639 1.1638138,0.7422444 H 6.1368233 C 6.3329678,8.1954566 6.59614,8.3757261 6.86919,8.3778427 6.9714955,8.3781955 7.075565,8.3503261 7.1704622,8.2832983 l 7.056e-4,-7.056e-4 7.055e-4,-3.528e-4 C 7.3376789,8.1587677 7.3888316,7.9714427 7.3881261,7.7890566 7.3877733,7.5925594 7.3334455,7.3921816 7.2942872,7.2359011 V 7.2355483 7.2351955 C 7.1761067,6.7878733 7.0582789,6.3412567 6.9489178,5.8956983 l -0.056092,0.013758 0.037042,0.04445 C 7.2833511,5.6593372 7.63754,5.3721761 7.9998427,5.0772539 l 7.056e-4,-7.056e-4 3.528e-4,-3.527e-4 C 8.20269,4.8998067 8.5357122,4.6525095 8.5410038,4.3099623 c 0,-0.0508 -0.00811,-0.1026584 -0.025047,-0.155575 l -0.055033,0.017992 -0.055386,0.018345 c 0.013406,0.041275 0.019403,0.080433 0.019403,0.1192389 0.00529,0.2568222 -0.2899834,0.5023555 -0.4995334,0.6783916 l 0.037747,0.043744 -0.036336,-0.04445 C 7.564515,5.2822178 7.2099733,5.5690261 6.8554317,5.8650067 l -0.027517,0.022578 0.00847,0.035631 c 0.1097138,0.4469694 0.2278944,0.8942916 0.346075,1.3412611 l 0.055739,-0.014464 -0.056092,0.013758 c 0.039511,0.1569861 0.090311,0.3506611 0.089958,0.5252861 -7.056e-4,0.1647472 -0.041981,0.3040945 -0.1696861,0.4007556 l 0.034925,0.046214 -0.033514,-0.047272 C 7.0286455,8.2409649 6.95174,8.2617788 6.86919,8.2621316 6.6494094,8.2638955 6.3947039,8.1005594 6.1982067,7.9760288 V 7.9756761 C 5.8030956,7.7322594 5.4238595,7.4796705 5.0350984,7.23449 L 5.0044064,7.215087 4.9737144,7.234137 C 4.5761345,7.4796705 4.1884317,7.7407261 3.8014345,7.9848483 h 3.528e-4 C 3.6056428,8.1083205 3.346704,8.2762427 3.1286873,8.2741261 3.0464901,8.2734205 2.9706429,8.2522538 2.8976179,8.1979261 L 2.8972651,8.1975733 H 2.8969123 C 2.7667373,8.1023233 2.7254623,7.9654455 2.724404,7.8024622 2.7240512,7.6271316 2.7780262,7.4309872 2.8178901,7.2718844 L 2.8175373,7.27259 C 2.9357179,6.8175066 3.0535456,6.3793567 3.1717262,5.9239206 l 0.00917,-0.035983 -0.027869,-0.02293 C 2.7981345,5.5686733 2.4351262,5.281865 2.0731762,4.9876484 l -0.036336,0.04445 0.037747,-0.043744 C 1.8650373,4.8123178 1.5697623,4.5667845 1.575054,4.3099623 c 0,-0.038806 0.006,-0.077964 0.019403,-0.1192389 0.051858,-0.1580445 0.1767416,-0.2405945 0.3407833,-0.2906889 0.1629833,-0.048331 0.3570111,-0.057856 0.517525,-0.06597 h 7.055e-4 l 3.528e-4,-3.527e-4 c 0.4624917,-0.033514 0.917575,-0.050447 1.3828889,-0.083608 l 0.035631,-0.00282 0.013406,-0.033514 c 0.1778,-0.4310944 0.3379611,-0.8607777 0.5062361,-1.2819944 0.059267,-0.1481667 0.1280583,-0.3294944 0.2257778,-0.4699 0.098778,-0.1404055 0.2169583,-0.23495 0.3862916,-0.2353028 0.1647472,3.528e-4 0.2811639,0.094545 0.3792361,0.23495 0.096661,0.1407584 0.1654528,0.3220861 0.2247195,0.4702528 l 3.527e-4,7.056e-4 v 3.527e-4 c 0.1763889,0.4205111 0.33655,0.8498417 0.5051778,1.2802306 l 0.013406,0.034219 0.036336,0.00282 c 0.4653139,0.033161 0.9203972,0.050095 1.3828888,0.083608 l 3.528e-4,3.527e-4 h 7.056e-4 c 0.1601611,0.00811 0.3545416,0.017639 0.517525,0.06597 0.1640416,0.050094 0.2889249,0.1326444 0.3407833,0.2906889 z"
       style="fill:#3771b8;fill-opacity:1;fill-rule:nonzero;stroke:none;stroke-width:0.35277778"/>
  </g>
</svg>
