<?xml version="1.0" encoding="UTF-8" standalone="no"?>
<svg
   xmlns:dc="http://purl.org/dc/elements/1.1/"
   xmlns:cc="http://creativecommons.org/ns#"
   xmlns:rdf="http://www.w3.org/1999/02/22-rdf-syntax-ns#"
   xmlns:svg="http://www.w3.org/2000/svg"
   xmlns="http://www.w3.org/2000/svg"
   viewBox="0 0 10 10"
   version="1.1">
  <g>
    <path
       d="M 7.3913,6.78964 7.883425,7.8864261 6.7929889,7.4002983 2.0678835,2.6709595 C 1.9493501,2.5524262 1.9391196,2.3696873 2.0470696,2.263854 L 2.2650862,2.0458373 c 0.051858,-0.052211 0.1224139,-0.076906 0.1950861,-0.074789 0.081139,0.00388 0.1580445,0.037395 0.2141361,0.095603 z m 0.7806972,1.5307027 c 0.081139,0 0.1453444,-0.064205 0.1453444,-0.1453444 L 8.3049944,8.1146733 7.6467111,6.6464122 7.6177833,6.6026678 2.8799779,1.8609818 C 2.7720279,1.7509151 2.6245668,1.6863568 2.4707557,1.6800068 2.3169446,1.6740096 2.1694834,1.7322179 2.0594168,1.8401679 L 1.8414001,2.0581845 C 1.6212668,2.2783179 1.6314973,2.6437956 1.862214,2.876629 l 4.7459194,4.7501526 0.043744,0.028928 1.4622639,0.6501695 z"
       style="fill:#00abe0;fill-opacity:1;fill-rule:nonzero;stroke:none;stroke-width:0.35277778"/>
    <path
       d="M 7.3913,6.78964 7.4703222,6.7540094 8.0559333,8.0582289 6.7428945,7.4729705 2.0061473,2.7323429 h 3.528e-4 C 1.9271251,2.6529679 1.8854973,2.5499568 1.8854973,2.4476512 1.8851446,2.3583984 1.9179529,2.2684401 1.9863918,2.2017651 L 1.9856862,2.2024707 2.2037029,1.984454 C 2.2710834,1.9167207 2.3617473,1.8839123 2.4520584,1.8839123 l 0.010583,3.528e-4 h 0.00106 0.00106 c 0.1016,0.00529 0.1996723,0.04692 0.2719917,0.1220611 l -0.062442,0.060325 0.061383,-0.061383 4.7282804,4.7342777 0.00635,0.014464 L 7.3913,6.78964 7.3299167,6.8510233 2.6122195,2.127329 2.6118668,2.1266234 C 2.5720029,2.0853484 2.516264,2.060654 2.455939,2.057479 L 2.460169,1.971048 2.457699,2.057831 2.452059,2.0574782 C 2.40267,2.057831 2.358926,2.0747642 2.3264702,2.1072202 l -0.2180167,0.2180166 -3.528e-4,3.528e-4 -3.528e-4,3.528e-4 c -0.032456,0.03175 -0.048683,0.073731 -0.048683,0.1217083 -3.528e-4,0.054328 0.022931,0.1146528 0.070203,0.161925 L 6.8430833,7.3276261 7.7112694,7.7142705 7.311925,6.8252706 7.3913,6.78964 7.3299167,6.8510233 Z m 0.7806972,1.5307027 v -0.086783 c 0.033867,-7.055e-4 0.058208,-0.024694 0.058561,-0.058561 h 0.086783 L 8.232675,8.1926372 8.2220916,8.1414844 7.5705111,6.6883928 7.55005,6.6580539 2.8182418,1.9220123 2.817889,1.9216596 C 2.725814,1.8278207 2.5991668,1.7720818 2.4672279,1.7667901 l -0.01905,-3.528e-4 c -0.1224139,0 -0.2388306,0.048331 -0.3277306,0.1354667 l 3.528e-4,-3.528e-4 -0.2180166,0.2180167 c -0.089253,0.089253 -0.13335,0.2060222 -0.13335,0.3277305 0,0.130175 0.051153,0.2642306 0.1541638,0.3679472 v 0 l 4.7399222,4.7438027 0.030339,0.020461 1.4485056,0.6438195 0.0508,0.0127 -0.021167,0.084314 v -0.086783 0.086783 l -0.020814,0.084314 -0.058208,-0.014464 -0.00741,-0.00212 -1.4756695,-0.6561667 -0.049742,-0.033161 -0.00741,-0.00459 -4.7522693,-4.7565027 v 0 C 1.6650112,2.8011345 1.595514,2.6229818 1.595514,2.4472984 c 0,-0.1636889 0.061031,-0.3273777 0.1845028,-0.4504972 L 1.9980335,1.7787846 1.9983862,1.7784318 1.998739,1.778079 C 2.1190362,1.6598984 2.2799029,1.5928707 2.4481779,1.5928707 l 0.026105,3.527e-4 c 0.1756834,0.00741 0.3436056,0.080786 0.4677834,0.2067278 l -7.056e-4,-3.528e-4 4.7438027,4.7476833 0.033867,0.0508 0.00388,0.006 0.6653389,1.4837833 0.014464,0.069497 0.00176,0.00882 v 0.00882 C 8.404125,8.3034094 8.3004083,8.4071261 8.1719972,8.4071261 h -0.010583 l -0.010231,-0.00247 z"
       style="fill:#00abe0;fill-opacity:1;fill-rule:nonzero;stroke:none;stroke-width:0.35277778"/>
    <path
       d="m 2.45277,3.42551 c 0.040922,0 0.079375,-0.014817 0.1072444,-0.042686 L 3.3756366,2.566849 c 0.058208,-0.057856 0.058208,-0.1545167 0,-0.2123722 -0.057856,-0.057856 -0.1545166,-0.057856 -0.2123722,0 L 2.3476422,3.1700989 c -0.057856,0.057855 -0.057856,0.1545167 0,0.212725 0.027869,0.027869 0.066675,0.042686 0.1051278,0.042686"
       style="fill:#00abe0;fill-opacity:1;fill-rule:nonzero;stroke:none;stroke-width:0.35277778"/>
    <path
       d="M 2.45277,3.42551 V 3.338727 L 2.498631,3.321441 3.3142532,2.505466 3.3325972,2.460663 3.3142532,2.41586 3.2694502,2.397868 3.2246472,2.41586 2.409025,3.2314822 l -0.017992,0.044803 0.017992,0.045156 0.043744,0.017286 v 0.086783 0.086783 c -0.061031,0 -0.1210028,-0.022931 -0.1665111,-0.068086 C 2.240045,3.3976406 2.2174672,3.33661 2.2174672,3.276285 c 0,-0.059972 0.022578,-0.1213555 0.068792,-0.1675694 L 3.1018811,2.2930934 c 0.046214,-0.046214 0.1075972,-0.068792 0.1675694,-0.068792 0.059972,0 0.1213556,0.022578 0.1679223,0.068792 0.045861,0.046214 0.068792,0.1075972 0.068792,0.1675694 0,0.060325 -0.02293,0.1213556 -0.068792,0.1675694 L 2.6217506,3.4442072 C 2.5762422,3.4893628 2.5148589,3.5126461 2.45277,3.5122933 Z"
       style="fill:#00abe0;fill-opacity:1;fill-rule:nonzero;stroke:none;stroke-width:0.35277778"/>
    <path
       d="m 6.52417,7.49484 c 0.040922,0 0.077258,-0.014817 0.1072444,-0.042686 L 7.4470366,6.6365317 c 0.058208,-0.058208 0.058208,-0.1548695 0,-0.212725 -0.057855,-0.057856 -0.1545166,-0.057856 -0.2123722,0 L 6.4190422,7.2394289 c -0.057855,0.058208 -0.057855,0.1545167 0,0.212725 0.025753,0.027869 0.064206,0.042686 0.1051278,0.042686"
       style="fill:#00abe0;fill-opacity:1;fill-rule:nonzero;stroke:none;stroke-width:0.35277778"/>
    <path
       d="M 6.52417,7.49484 V 7.408057 L 6.572501,7.388301 6.631415,7.452154 6.570032,7.390771 7.3856542,6.574796 7.4036462,6.529993 7.3856542,6.48519 7.3408512,6.467198 7.2960482,6.48519 6.480426,7.3008122 l -0.017992,0.044803 0.017992,0.045156 0.00106,0.00106 0.00141,0.00141 0.041275,0.014817 v 0.086783 0.086783 c -0.061736,0 -0.123825,-0.022225 -0.1689806,-0.070556 l 0.063853,-0.058914 -0.061383,0.061383 C 6.3110922,7.4673233 6.2888672,7.40594 6.2888672,7.345615 c 0,-0.059972 0.022225,-0.1213555 0.068792,-0.1675694 l 0.01023,-0.010231 0.8053917,-0.8053916 c 0.046214,-0.046214 0.1075972,-0.068792 0.1675694,-0.068792 0.059972,0 0.1213556,0.022578 0.1679223,0.068792 0.045861,0.046214 0.068792,0.1075972 0.068439,0.1675694 3.528e-4,0.060325 -0.022578,0.1213556 -0.068792,0.1679222 l -0.006,0.006 -0.8106834,0.8106834 -0.00106,0.00106 c -0.044092,0.041623 -0.1040647,0.06667 -0.1665064,0.065965 z"
       style="fill:#00abe0;fill-opacity:1;fill-rule:nonzero;stroke:none;stroke-width:0.35277778"/>
    <path
       d="M 5.43914,7.77685 H 2.6670123 c -0.1277056,0 -0.2314222,-0.1037167 -0.2314222,-0.2314222 0,-0.1284111 0.1037166,-0.231775 0.2314222,-0.231775 H 5.43914 c 0.1277056,0 0.2314222,0.1033639 0.2314222,0.231775 0,0.1277055 -0.1037166,0.2314222 -0.2314222,0.2314222"
       style="fill:#00abe0;fill-opacity:1;fill-rule:nonzero;stroke:none;stroke-width:0.35277778"/>
  </g>
</svg>
