<svg version="1.1" viewBox="0.0 0.0 27.968503937007874 40.06299212598425" fill="none" stroke="none" stroke-linecap="square" stroke-miterlimit="10" xmlns:xlink="http://www.w3.org/1999/xlink" xmlns="http://www.w3.org/2000/svg"><clipPath id="p.0"><path d="m0 0l27.968504 0l0 40.062992l-27.968504 0l0 -40.062992z" clip-rule="nonzero"/></clipPath><g clip-path="url(#p.0)"><path fill="#000000" fill-opacity="0.0" d="m0 0l27.968504 0l0 40.062992l-27.968504 0z" fill-rule="evenodd"/><path fill="#000000" fill-opacity="0.0" d="m0 0l27.968504 0l0 39.622047l-27.968504 0z" fill-rule="evenodd"/><path fill="#ffffff" d="m14.017417 3.1887493q1.984376 0 3.859376 1.015625q1.890625 1.015625 2.9375 2.90625q1.0625 1.890625 1.0625 3.9375q0 2.03125 -1.046875 3.90625q-1.03125 1.875 -2.90625 2.921875q-1.859375 1.03125 -3.906251 1.03125q-2.03125 0 -3.90625 -1.03125q-1.875 -1.046875 -2.921875 -2.921875q-1.03125 -1.875 -1.03125 -3.90625q0 -2.046875 1.046875 -3.9375q1.0625 -1.890625 2.953125 -2.90625q1.890625 -1.015625 3.859375 -1.015625zm0 1.3125q-1.65625 0 -3.21875 0.84375q-1.5625 0.84375 -2.453125 2.421875q-0.890625 1.578125 -0.890625 3.28125q0 1.703125 0.875 3.265625q0.875 1.546875 2.4375 2.421875q1.5625 0.875 3.25 0.875q1.703125 0 3.265626 -0.875q1.5625 -0.875 2.421875 -2.421875q0.859375 -1.5625 0.859375 -3.265625q0 -1.703125 -0.875 -3.28125q-0.875 -1.578125 -2.453125 -2.421875q-1.562501 -0.84375 -3.218751 -0.84375zm-3.4375 10.890625l0 -8.453125l2.90625 0q1.484375 0 2.140625 0.234375q0.67187595 0.234375 1.062501 0.828125q0.40625 0.578125 0.40625 1.234375q0 0.921875 -0.671875 1.609375q-0.65625095 0.6875 -1.750001 0.765625q0.453125 0.1875 0.71875 0.453125q0.515625 0.5 1.250001 1.671875l1.03125 1.65625l-1.65625 0l-0.75000095 -1.328125q-0.890625 -1.578125 -1.4375 -1.96875q-0.375 -0.296875 -1.09375 -0.296875l-0.796875 0l0 3.59375l-1.359375 0zm1.359375 -4.75l1.65625 0q1.1875 0 1.609375 -0.359375q0.4375 -0.359375 0.4375 -0.9375q0 -0.375 -0.203125 -0.671875q-0.203125 -0.296875 -0.578125 -0.4375q-0.375 -0.15625 -1.375 -0.15625l-1.546875 0l0 2.5625z" fill-rule="nonzero"/></g></svg>