<?xml version="1.0" encoding="UTF-8" standalone="no"?>
<svg
   xmlns:dc="http://purl.org/dc/elements/1.1/"
   xmlns:cc="http://creativecommons.org/ns#"
   xmlns:rdf="http://www.w3.org/1999/02/22-rdf-syntax-ns#"
   xmlns:svg="http://www.w3.org/2000/svg"
   xmlns="http://www.w3.org/2000/svg"
   viewBox="0 0 10 10"
   version="1.1">
  <path
     d="m 4.99475,2.1723 c -0.6247694,0 -1.2181416,0.2003778 -1.7166166,0.5796139 l -0.021167,0.01658 3.9768638,3.9772166 0.016581,-0.021519 C 7.6275305,6.2331249 7.8349638,5.6214083 7.8339055,5.0022833 7.8324944,4.3877444 7.6264722,3.7799083 7.2542916,3.2909583 6.7131305,2.5801111 5.8893944,2.1723 4.99475,2.1723 M 2.7151001,3.3234139 C 2.3587945,3.8063666 2.1630028,4.4025611 2.1637084,5.0022833 c 0.00141,0.6050138 0.1915583,1.1821583 0.5489222,1.6700499 0.5323417,0.7263695 1.3885333,1.1602861 2.2905861,1.1602861 0.6057194,0 1.1846277,-0.1897944 1.674636,-0.5489222 l 0.022225,-0.016581 -3.9687499,-3.965575 z m 2.284236,5.2581526 c -0.9567333,0 -1.8563166,-0.3728861 -2.5325916,-1.0495138 C 1.7904695,6.8554249 1.418289,5.9558416 1.418289,4.9991083 1.4189945,3.0246111 3.0255445,1.4184139 5.0000417,1.4184139 c 1.9744971,0.00247 3.5810471,1.6104305 3.5817527,3.5838694 -0.00141,1.9737916 -1.6083139,3.5792832 -3.5814,3.5792832 z"
     style="fill:#e9262a;fill-opacity:1;fill-rule:nonzero;stroke:none;stroke-width:0.35277778"/>
  <path
     d="M 5.00318,7.80899 C 4.1371106,7.80899 3.2826828,7.4103511 2.7316439,6.6582289 2.3795717,6.1777456 2.188719,5.5981317 2.1873078,5.0022901 2.1866023,4.4032734 2.3781606,3.819779 2.7337606,3.3375318 L 6.6640577,7.2643011 C 6.1627605,7.6318956 5.5803244,7.80899 5.00318,7.80899 M 7.2316772,6.7097345 3.2925606,2.7709707 c 0.5094111,-0.3877028 1.108075,-0.5750278 1.7021527,-0.5750278 0.8484306,0 1.6873361,0.3820583 2.2408444,1.1094861 0.371475,0.4878916 0.5732639,1.0837333 0.5750278,1.6968611 3.528e-4,0.6173611 -0.2028472,1.2177888 -0.5789083,1.7074444 M 5.000005,1.3947846 c -1.990725,0 -3.605036,1.6136055 -3.6053888,3.6043305 -3.528e-4,1.9910777 1.6136055,3.6057415 3.6046832,3.6060943 h 7.056e-4 c 1.9903722,0 3.6039777,-1.6125472 3.6053888,-3.6029193 C 8.6043355,3.0115651 6.9917883,1.397254 5.0010633,1.3947846 Z m 0.00318,6.4614776 c 0.6106583,0 1.1948583,-0.1915583 1.6887472,-0.5535083 L 6.73673,7.2699456 6.6975716,7.23114 2.7672745,3.3040179 2.7284689,3.2652123 2.6956606,3.3093095 C 2.3365328,3.7961429 2.1393301,4.397629 2.1400356,5.0026428 c 0.00141,0.6096 0.1929695,1.1920361 0.5535083,1.6838083 0.5369278,0.7323667 1.400175,1.1698111 2.3096361,1.1698111 M 7.2362633,6.7813484 7.2690716,6.7386622 C 7.6493661,6.2433623 7.8585633,5.6267067 7.8578577,5.0022901 7.8560938,4.3824595 7.6486605,3.7696845 7.2733049,3.2765012 6.7275577,2.5596568 5.8971189,2.1483179 4.9947133,2.1486707 c -0.6297083,0 -1.2283722,0.2021416 -1.7307277,0.5845527 l -0.043039,0.032808 0.038453,0.0381 3.9387638,3.9391166 z M 5.0007106,1.4420568 C 6.9614494,1.4445263 8.5570633,3.041904 8.5581216,5.0022901 8.5567105,6.9630289 6.9607438,8.5579372 4.9992994,8.5579372 4.0489161,8.5579372 3.15533,8.1875205 2.4836412,7.5154789 1.8115995,6.8430845 1.4418884,5.9494984 1.4418884,4.9991151 1.442594,3.0376707 3.0385606,1.4420568 5.000005,1.4420568 Z"
     style="fill:#e9262a;fill-opacity:1;fill-rule:nonzero;stroke:none;stroke-width:0.35277778"/>
</svg>
