<?xml version="1.0" encoding="UTF-8"?>
<svg width="72px" height="70px" viewBox="0 0 72 70" version="1.1" xmlns="http://www.w3.org/2000/svg" xmlns:xlink="http://www.w3.org/1999/xlink">
    <title>Group</title>
    <defs>
        <path d="M35.3397436,6.15384615 C45.3003205,6.15384615 52.3330128,14.2221154 51.3983974,25.7115385 C56.4320513,25.5788462 64.1858974,27.8778846 64.1858974,36.4423077 C64.1858974,42.0096154 59.6570513,46.5384615 54.0897436,46.5384615 L16.5897436,46.5384615 C11.0224359,46.5384615 6.49358974,42.0096154 6.49358974,36.4423077 C6.49358974,28.3740385 13.6445513,25.3855769 19.2810897,25.7115385 C18.799359,13.5442308 25.6503205,6.15384615 35.3397436,6.15384615 Z M35.3397436,0.384615385 C23.7839744,0.384615385 14.3772436,9.44519231 13.7657051,20.8423077 C6.35224359,22.1778846 0.724358974,28.6480769 0.724358974,36.4423077 C0.724358974,45.2028846 7.82916667,52.3076923 16.5897436,52.3076923 L54.0897436,52.3076923 C62.8503205,52.3076923 69.9551282,45.2028846 69.9551282,36.4423077 C69.9551282,28.6480769 64.3272436,22.1778846 56.9137821,20.8423077 C56.3022436,9.44519231 46.8955128,0.384615385 35.3397436,0.384615385 Z M23.8012821,69.6153846 L23.8012821,63.8461538 L32.4551282,63.8461538 L32.4551282,58.0769231 L38.224359,58.0769231 L38.224359,63.8461538 L46.8782051,63.8461538 L46.8782051,69.6153846 L23.8012821,69.6153846 Z" id="path-1"></path>
        <linearGradient x1="11.3657014%" y1="85.7988166%" x2="100%" y2="14.2011834%" id="linearGradient-3">
            <stop stop-color="#012748" offset="0%"></stop>
            <stop stop-color="#265696" offset="100%"></stop>
        </linearGradient>
        <polygon id="path-4" points="23.8012821 69.6153846 23.8012821 63.8461538 32.4551282 63.8461538 32.4551282 58.0769231 38.224359 58.0769231 38.224359 63.8461538 46.8782051 63.8461538 46.8782051 69.6153846"></polygon>
    </defs>
    <g id="Page-1" stroke="none" stroke-width="1" fill="none" fill-rule="evenodd">
        <g id="Product-(Onesite-Cloud)-Page" transform="translate(-616.000000, -1305.000000)">
            <g id="Group-10" transform="translate(200.000000, 1305.000000)">
                <g id="Group-8" transform="translate(328.666667, 0.000000)">
                    <g id="Group" transform="translate(88.500000, 0.000000)">
                        <mask id="mask-2" fill="white">
                            <use xlink:href="#path-1"></use>
                        </mask>
                        <use id="Shape" fill="#000000" fill-rule="nonzero" xlink:href="#path-1"></use>
                        <rect id="Rectangle-Copy-6" fill="url(#linearGradient-3)" mask="url(#mask-2)" x="-16.6602564" y="-9" width="104" height="88"></rect>
                        <mask id="mask-5" fill="white">
                            <use xlink:href="#path-4"></use>
                        </mask>
                        <use id="Path-Copy" fill="#84B4F1" fill-rule="nonzero" xlink:href="#path-4"></use>
                    </g>
                </g>
            </g>
        </g>
    </g>
</svg>