<?xml version="1.0" encoding="utf-8"?>
<!-- Generator: Adobe Illustrator 25.4.1, SVG Export Plug-In . SVG Version: 6.00 Build 0)  -->
<svg version="1.1" id="Layer_1" xmlns="http://www.w3.org/2000/svg" xmlns:xlink="http://www.w3.org/1999/xlink" x="0px" y="0px"
	 viewBox="0 0 396.2 66.8" style="enable-background:new 0 0 396.2 66.8;" xml:space="preserve">
<style type="text/css">
	.st0{fill:#F36C24;}
</style>
<path class="st0" d="M26.9,38.5l-5.2,5.5v9.9h-9V14.8h9V33l17.3-18.3h10L32.8,32.2l17.1,21.7H39.4L26.9,38.5z"/>
<path class="st0" d="M54.1,14.8h9v39.1h-9V14.8z"/>
<path class="st0" d="M108.3,14.8v39.1h-7.4L81.4,30.1v23.7h-8.9V14.8h7.5l19.4,23.7V14.8H108.3z"/>
<path class="st0" d="M147.8,46.6v7.3h-30.3V14.8h29.5V22h-20.5v8.5h18.1v7h-18.1v9H147.8z"/>
<path class="st0" d="M163.1,22.1h-12.5v-7.4h34v7.4h-12.5v31.7h-9V22.1z"/>
<path class="st0" d="M189.5,14.8h9v39.1h-9V14.8z"/>
<path class="st0" d="M204.2,34.8c0-11.8,9-20.2,21.2-20.2c6.8,0,12.4,2.5,16.1,6.9l-5.8,5.4c-2.6-3-5.9-4.6-9.8-4.6
	c-7.3,0-12.5,5.1-12.5,12.5c0,7.4,5.2,12.5,12.5,12.5c3.9,0,7.2-1.6,9.8-4.6l5.8,5.4c-3.7,4.5-9.3,7-16.1,7
	C213.3,55,204.2,46.6,204.2,34.8z"/>
<path class="st0" d="M247.8,15.3h15.5c12.4,0,20.8,8.1,20.8,19.5c0,11.4-8.4,19.5-20.8,19.5h-15.5V15.3z M263,51.8
	c11.1,0,18.1-7,18.1-17c0-9.9-7.1-17-18.1-17h-12.4v33.9H263z"/>
<path class="st0" d="M315.7,43.3H293l-5,11H285l18-39.1h2.8l18,39.1h-3.1L315.7,43.3z M314.6,40.9l-10.3-22.5l-10.2,22.5H314.6z"/>
<path class="st0" d="M333.2,17.8h-14.1v-2.6h31v2.6H336v36.5h-2.8V17.8z"/>
<path class="st0" d="M376.1,43.3h-22.7l-5,11h-3.1l18-39.1h2.8l18,39.1h-3.1L376.1,43.3z M375,40.9l-10.3-22.5l-10.2,22.5H375z"/>
</svg>
