<svg viewBox="0 0 24 24" xmlns="http://www.w3.org/2000/svg"><g stroke="#1C81A0" fill="none" stroke-linejoin="round"><path d="M.5.5h22v3H.5Z"/><path fill="none" stroke="#1C81A0" stroke-linecap="round" stroke-linejoin="round" d="M.52 17.5l21.96 0"/><path d="M2.5 3.5h18v14h-18Z"/><path d="M11.5 17.5l0 2.94"/><path d="M11.5 20.5a1.5 1.5 0 1 0 0 3 1.5 1.5 0 1 0 0-3Z"/><g stroke-linecap="round" stroke="#1C81A0" fill="none" stroke-linejoin="round"><path d="M9.5 5.5h4v3h-4Z"/><path d="M10 11.5h3v3h-3Z"/><path d="M15.5 11.5h3v3h-3Z"/><path d="M4.5 11.5h3v3h-3Z"/><path d="M13.5 7.5l3 0 0 4"/><path d="M9.5 7.5l-3 0 0 4"/></g><path d="M11.5 8.5l0 3"/></g><path fill="none" d="M0 0h24v24H0Z"/></svg>